<?xml version="1.0" standalone="no"?>
<!DOCTYPE svg PUBLIC "-//W3C//DTD SVG 1.1//EN" "http://www.w3.org/Graphics/SVG/1.1/DTD/svg11.dtd" >
<svg>
<metadata>
Created by FontForge 20100429 at Tue Dec  9 01:49:51 2014
 By fontface
AHAMONO is a trademark of Hanken Design Co..
</metadata>
<defs>
<font id="AHAMONO-Monospaced" horiz-adv-x="566" >
  <font-face 
    font-family="AHAMONO Mono"
    font-weight="400"
    font-stretch="normal"
    units-per-em="1000"
    panose-1="0 0 0 0 0 0 0 0 0 0"
    ascent="765"
    descent="-235"
    x-height="490"
    cap-height="739"
    bbox="-17 -235 583 994"
    underline-thickness="50"
    underline-position="-223"
    stemh="75"
    stemv="74"
    unicode-range="U+0009-FB02"
  />
<missing-glyph 
 />
    <glyph glyph-name=".notdef" 
 />
    <glyph glyph-name="space" unicode=" " 
 />
    <glyph glyph-name="exclam" unicode="!" 
d="M359 79c0 -42 -33 -79 -76 -79s-76 37 -76 79s33 79 76 79s76 -37 76 -79zM318 704v-426c0 -20 -15 -35 -35 -35s-35 15 -35 35v426c0 20 15 35 35 35s35 -15 35 -35z" />
    <glyph glyph-name="quotedbl" unicode="&#x22;" 
d="M257 704v-168c0 -20 -14 -35 -35 -35c-20 0 -35 15 -35 35v168c0 20 15 35 35 35c21 0 35 -15 35 -35zM379 704v-168c0 -20 -15 -35 -35 -35c-21 0 -35 15 -35 35v168c0 20 14 35 35 35c20 0 35 -15 35 -35z" />
    <glyph glyph-name="numbersign" unicode="#" 
d="M328 272l56 197h-159l-55 -197h158zM538 469h-82l-55 -197h79c47 0 47 -70 0 -70h-99l-57 -202c-13 -44 -81 -25 -68 20l52 182h-158l-57 -202c-13 -44 -81 -25 -68 20l52 182h-49c-46 0 -46 70 0 70h69l56 197h-67c-47 0 -47 70 0 70h87l48 172c12 44 81 25 68 -20
l-44 -152h159l48 172c12 44 81 25 68 -20l-44 -152h62c47 0 47 -70 0 -70z" />
    <glyph glyph-name="dollar" unicode="$" 
d="M411 175c1 28 -10 57 -32 75l-43 35v-202c40 14 74 46 75 92zM226 470l40 -33v223c-34 -9 -60 -34 -72 -70c-14 -43 -4 -90 32 -120zM483 173c-2 -88 -67 -151 -147 -168v-44c0 -21 -15 -35 -35 -35s-35 14 -35 35v41c-108 13 -187 110 -187 220c0 20 16 38 37 38
c20 0 36 -18 36 -38c0 -69 48 -131 114 -144v264l-86 69c-60 48 -78 131 -55 203c21 67 74 113 141 123v47c0 20 15 35 35 35s35 -15 35 -35v-50c64 -15 122 -59 147 -120c8 -19 3 -41 -17 -51c-19 -10 -38 0 -48 18c-20 36 -46 63 -82 75v-275l89 -72
c40 -32 60 -85 58 -136z" />
    <glyph glyph-name="percent" unicode="%" 
d="M480 144v36c0 35 -29 64 -63 64c-33 0 -62 -29 -62 -64v-36c0 -36 29 -64 62 -64c34 0 63 28 63 64zM557 180v-36c0 -79 -62 -144 -140 -144c-77 0 -140 65 -140 144v36c0 79 63 144 140 144c78 0 140 -65 140 -144zM548 689l-475 -679c-26 -38 -84 2 -58 40l475 678
c27 38 85 -1 58 -39zM220 559v35c0 36 -29 65 -63 65c-33 0 -62 -29 -62 -65v-35c0 -36 29 -65 62 -65c34 0 63 29 63 65zM297 594v-35c0 -79 -62 -144 -140 -144c-77 0 -140 65 -140 144v35c0 80 63 145 140 145c78 0 140 -65 140 -145z" />
    <glyph glyph-name="ampersand" unicode="&#x26;" 
d="M246 76h144v301h-144c-81 0 -148 -68 -148 -151s67 -150 148 -150zM542 415c0 -21 -17 -38 -37 -38h-41v-339c0 -21 -16 -38 -37 -38h-181c-122 0 -222 102 -222 226c0 85 46 158 113 197c-37 33 -60 81 -60 136c0 105 83 180 183 180h167c21 0 37 -17 37 -38
s-16 -38 -37 -38h-167c-62 0 -109 -44 -109 -104c0 -61 48 -106 109 -106h245c20 0 37 -17 37 -38z" />
    <glyph glyph-name="quoteright" unicode="&#x2019;" 
d="M361 663v-79l-123 -203l-33 31l80 172c-41 1 -74 37 -74 79c0 44 34 79 76 79c41 0 74 -35 74 -79z" />
    <glyph glyph-name="parenleft" unicode="(" 
d="M448 -197c0 -21 -16 -38 -36 -38c-162 0 -294 172 -294 347v280c0 174 132 346 294 346c20 0 36 -17 36 -38s-16 -38 -36 -38c-123 0 -223 -138 -223 -270v-280c0 -132 100 -270 223 -270c20 0 36 -17 36 -39z" />
    <glyph glyph-name="parenright" unicode=")" 
d="M448 392v-280c0 -175 -132 -347 -294 -347c-20 0 -36 17 -36 38c0 22 16 39 36 39c123 0 223 138 223 270v280c0 132 -100 270 -223 270c-20 0 -36 17 -36 38s16 38 36 38c162 0 294 -172 294 -346z" />
    <glyph glyph-name="asterisk" unicode="*" 
d="M406 648c3 -10 -3 -22 -13 -26l-61 -25l33 -64c5 -10 2 -22 -7 -28s-21 -5 -29 4l-46 53l-46 -53c-5 -5 -11 -8 -17 -8c-4 0 -8 1 -12 4c-9 6 -12 18 -7 28l33 64l-61 25c-10 4 -16 16 -13 26c3 11 13 17 24 16l68 -8l9 63c2 11 11 20 22 20s20 -9 22 -20l9 -63l68 8
c11 1 21 -5 24 -16z" />
    <glyph glyph-name="plus" unicode="+" 
d="M415 215h-97v-97c0 -46 -70 -46 -70 0v97h-97c-46 0 -46 70 0 70h97v97c0 46 70 46 70 0v-97h97c46 0 46 -70 0 -70z" />
    <glyph glyph-name="comma" unicode="," 
d="M362 79v-79l-124 -203l-33 31l80 172c-40 1 -74 36 -74 79s35 79 76 79s75 -36 75 -79z" />
    <glyph glyph-name="hyphen" unicode="-" 
d="M395 215h-224c-46 0 -46 70 0 70h224c46 0 46 -70 0 -70z" />
    <glyph glyph-name="period" unicode="." 
d="M359 79c0 -43 -35 -79 -76 -79s-76 36 -76 79s35 79 76 79s76 -36 76 -79z" />
    <glyph glyph-name="slash" unicode="/" 
d="M553 704c0 -6 -2 -12 -4 -17l-469 -857c-7 -11 -16 -19 -29 -19c-19 0 -37 15 -37 35c0 5 2 11 4 17l469 856c6 11 17 20 30 20c18 0 36 -16 36 -35z" />
    <glyph glyph-name="zero" unicode="0" 
d="M422 220v306c0 6 -1 13 -2 20l-235 -428c26 -27 61 -42 98 -42c76 0 139 65 139 144zM146 200l235 427c-26 27 -61 43 -98 43c-76 0 -139 -65 -139 -144v-306c0 -7 1 -14 2 -20zM494 526v-306c0 -121 -95 -220 -211 -220c-117 0 -211 99 -211 220v306
c0 121 95 219 211 219c117 0 211 -98 211 -219z" />
    <glyph glyph-name="one" unicode="1" 
d="M502 38c0 -21 -17 -38 -37 -38h-364c-20 0 -37 17 -37 38c0 20 17 38 37 38h146v594h-146c-20 0 -37 17 -37 38c0 20 17 37 37 37h182c20 0 36 -17 36 -37v-632h146c20 0 37 -18 37 -38z" />
    <glyph glyph-name="two" unicode="2" 
d="M507 38c0 -21 -16 -38 -36 -38h-376c-20 0 -36 17 -36 38c0 45 18 89 49 121l266 276c25 26 39 62 39 97c0 76 -59 137 -132 137c-57 0 -111 -38 -127 -94c0 -3 -1 -6 -2 -10c-1 -5 -2 -10 -4 -15c-4 -11 -14 -25 -34 -25s-39 15 -37 39c9 110 103 181 204 181
c113 0 205 -95 205 -213c0 -55 -22 -111 -60 -150l-267 -276c-8 -9 -15 -19 -20 -31h332c20 0 36 -17 36 -37z" />
    <glyph glyph-name="three" unicode="3" 
d="M485 295v-84c0 -112 -87 -211 -202 -211s-202 99 -202 211c0 20 15 38 36 38c20 0 36 -18 36 -38c0 -72 56 -135 130 -135s130 63 130 135v84c0 72 -56 136 -130 136c-60 0 -95 -51 -117 -51c-21 0 -37 18 -37 38c0 8 3 17 9 24l188 228h-209c-21 0 -36 18 -36 38
c0 19 16 37 36 37h288c21 0 37 -18 37 -38c0 -8 -4 -17 -9 -24l-146 -177c113 -2 198 -100 198 -211z" />
    <glyph glyph-name="four" unicode="4" 
d="M138 260h214v325zM535 222c0 -20 -17 -37 -37 -37h-72v-147c0 -21 -17 -38 -37 -38s-37 17 -37 38v147h-284c-20 0 -37 17 -37 37c0 8 3 15 7 22l320 485c7 10 19 16 31 16c20 0 37 -17 37 -37v-448h72c20 0 37 -17 37 -38z" />
    <glyph glyph-name="five" unicode="5" 
d="M485 295v-84c0 -116 -91 -211 -202 -211s-202 95 -202 211c0 21 16 38 36 38s36 -17 36 -38c0 -74 59 -135 130 -135s130 61 130 135v84c0 75 -58 136 -130 136c-28 0 -51 -11 -69 -23c-9 -6 -17 -12 -23 -17c-11 -8 -20 -11 -26 -11c-19 0 -36 17 -36 38v289
c0 21 16 38 37 38h283c20 0 36 -17 36 -38c0 -20 -16 -37 -36 -37h-247v-182c25 12 53 18 81 18c112 0 202 -94 202 -211z" />
    <glyph glyph-name="six" unicode="6" 
d="M422 217v63c0 79 -62 145 -139 145c-76 0 -139 -66 -139 -145v-63c0 -79 63 -144 139 -144s139 65 139 144zM495 280v-63c0 -121 -95 -220 -212 -220s-212 99 -212 220v308c0 121 95 220 212 220c91 0 167 -58 199 -144c2 -4 3 -9 3 -13c0 -21 -17 -38 -37 -38
c-31 0 -35 32 -48 54c-24 40 -71 66 -117 66c-76 0 -139 -66 -139 -145v-79c38 35 87 54 139 54c117 0 212 -99 212 -220z" />
    <glyph glyph-name="seven" unicode="7" 
d="M496 708c0 -12 -56 -146 -110 -275l-163 -383l-6 -15c-2 -6 -5 -12 -8 -17c-5 -10 -15 -21 -32 -21c-20 0 -37 17 -37 38c0 12 65 165 128 313l136 322h-298c-20 0 -36 17 -36 38c0 20 16 37 36 37h354c20 0 36 -17 36 -37z" />
    <glyph glyph-name="eight" unicode="8" 
d="M422 213v17c0 78 -64 141 -139 141s-139 -63 -139 -141v-17c0 -78 64 -140 139 -140s139 62 139 140zM394 558c0 62 -51 112 -111 112s-111 -50 -111 -112s51 -112 111 -112s111 50 111 112zM495 230v-17c0 -121 -97 -216 -212 -216s-212 95 -212 216v17
c0 75 38 143 97 182c-42 35 -69 88 -69 146c0 105 85 187 184 187s184 -82 184 -187c0 -58 -27 -111 -69 -146c59 -39 97 -107 97 -182z" />
    <glyph glyph-name="nine" unicode="9" 
d="M422 462v63c0 79 -63 145 -139 145s-139 -66 -139 -145v-63c0 -79 63 -144 139 -144s139 65 139 144zM495 525v-308c0 -121 -95 -220 -212 -220c-91 0 -167 58 -199 144c-2 5 -2 9 -2 14c0 20 16 37 36 37c31 0 35 -32 48 -53c24 -40 71 -66 117 -66c77 0 139 65 139 144
v79c-38 -34 -87 -54 -139 -54c-117 0 -212 99 -212 220v63c0 121 95 220 212 220s212 -99 212 -220z" />
    <glyph glyph-name="colon" unicode=":" 
d="M359 79c0 -43 -35 -79 -76 -79s-76 36 -76 79s35 79 76 79s76 -36 76 -79zM359 414c0 -43 -35 -79 -76 -79s-76 36 -76 79c0 44 35 80 76 80s76 -36 76 -80z" />
    <glyph glyph-name="semicolon" unicode=";" 
d="M361 79v-79l-124 -203l-33 31l80 172c-40 1 -74 36 -74 79s35 79 76 79s75 -36 75 -79zM362 414c0 -43 -35 -79 -76 -79s-76 36 -76 79c0 44 35 80 76 80s76 -36 76 -80z" />
    <glyph glyph-name="less" unicode="&#x3c;" 
d="M476 21c-7 -11 -17 -18 -31 -18c-6 0 -14 2 -20 6l-322 205c-11 7 -18 18 -18 32c0 13 8 24 18 32l322 205c17 11 40 3 51 -13c10 -17 6 -41 -11 -52l-271 -172l271 -173c16 -10 22 -34 11 -52z" />
    <glyph glyph-name="equal" unicode="=" 
d="M395 135h-224c-46 0 -46 70 0 70h224c46 0 46 -70 0 -70zM395 295h-224c-46 0 -46 70 0 70h224c46 0 46 -70 0 -70z" />
    <glyph glyph-name="greater" unicode="&#x3e;" 
d="M481 246c0 -14 -6 -25 -18 -32l-322 -205c-6 -4 -13 -6 -20 -6c-14 0 -24 7 -31 18c-11 18 -4 42 12 52l271 173l-271 172c-17 11 -23 35 -12 52c11 16 34 24 51 13l323 -205c10 -8 17 -19 17 -32z" />
    <glyph glyph-name="question" unicode="?" 
d="M362 79c0 -43 -34 -79 -76 -79c-41 0 -75 36 -75 79s34 79 75 79c42 0 76 -36 76 -79zM497 519v-32c0 -108 -77 -198 -177 -216v-26c0 -20 -17 -37 -37 -37s-37 17 -37 37v60c0 21 17 38 37 38c77 0 140 65 140 144v32c0 80 -63 144 -140 144s-140 -64 -140 -144
c0 -20 -17 -37 -37 -37s-37 17 -37 37c0 121 96 220 214 220s214 -99 214 -220z" />
    <glyph glyph-name="at" unicode="@" 
d="M328 197c25 25 25 65 0 90s-66 25 -90 0c-25 -25 -25 -65 0 -90c24 -25 65 -24 90 0zM526 29c0 -16 -13 -29 -29 -29h-214c-67 0 -124 24 -171 71s-71 104 -71 171c0 69 24 128 75 176c50 48 110 70 179 67c64 -3 119 -28 164 -76s67 -106 67 -173c0 -32 -11 -59 -34 -82
s-50 -34 -82 -34h-34c-13 0 -22 6 -27 19c-20 -13 -42 -19 -66 -19c-33 0 -62 12 -86 36s-36 53 -36 86c0 34 12 63 36 87s53 36 86 36c24 0 46 -6 66 -19c5 13 14 19 27 19c17 0 30 -13 30 -30v-156h4c31 0 57 26 57 57c0 51 -18 94 -51 131c-34 37 -76 57 -124 59
c-54 3 -98 -15 -135 -51c-38 -36 -57 -80 -57 -133c0 -51 17 -94 53 -130c35 -36 79 -53 130 -53h214c16 0 29 -13 29 -30z" />
    <glyph glyph-name="A" unicode="A" 
d="M162 266h242l-121 328zM565 38c0 -21 -16 -38 -37 -38c-15 0 -29 10 -34 24l-62 167h-298l-62 -167c-5 -14 -19 -24 -34 -24c-21 0 -37 17 -37 38c0 12 48 143 95 270l113 299l28 78c2 4 4 9 5 14c2 6 4 12 7 17c6 11 16 23 34 23s28 -12 34 -23c3 -5 5 -11 7 -17
c1 -5 3 -10 5 -14l28 -78l113 -299c47 -127 95 -258 95 -270z" />
    <glyph glyph-name="B" unicode="B" 
d="M438 222c0 81 -64 147 -141 147h-169v-294h169c77 0 141 66 141 147zM388 554c0 60 -48 109 -106 109h-154v-219h154c58 0 106 50 106 110zM511 222c0 -122 -96 -222 -214 -222h-206c-19 0 -36 17 -36 38v663c0 20 17 38 36 38h191c98 0 178 -84 178 -185
c0 -53 -22 -103 -59 -138c67 -39 110 -113 110 -194z" />
    <glyph glyph-name="C" unicode="C" 
d="M492 218c0 -120 -94 -218 -209 -218s-209 98 -209 218v303c0 120 94 218 209 218s209 -98 209 -218c0 -21 -16 -38 -36 -38s-36 17 -36 38c0 78 -62 142 -137 142s-137 -64 -137 -142v-303c0 -79 62 -143 137 -143s137 64 137 143c0 20 16 37 36 37s36 -17 36 -37z" />
    <glyph glyph-name="D" unicode="D" 
d="M420 218v303c0 78 -62 143 -137 143h-137v-589h137c75 0 137 65 137 143zM492 521v-303c0 -120 -94 -218 -209 -218h-173c-20 0 -36 17 -36 38v663c0 21 16 38 36 38h173c115 0 209 -98 209 -218z" />
    <glyph glyph-name="E" unicode="E" 
d="M501 38c0 -21 -16 -38 -35 -38h-366c-19 0 -35 17 -35 38v663c0 20 16 38 35 38h366c19 0 35 -18 35 -38c0 -21 -16 -38 -35 -38h-330v-256h256c20 0 36 -17 36 -38c0 -20 -16 -37 -36 -37h-256v-257h330c19 0 35 -17 35 -37z" />
    <glyph glyph-name="F" unicode="F" 
d="M492 701c0 -21 -17 -38 -36 -38h-310v-256h236c20 0 36 -17 36 -38c0 -20 -16 -37 -36 -37h-236v-294c0 -21 -16 -38 -36 -38c-19 0 -35 17 -35 38v663c0 20 16 38 35 38h346c19 0 36 -18 36 -38z" />
    <glyph glyph-name="G" unicode="G" 
d="M492 369v-151c0 -120 -94 -218 -209 -218s-209 98 -209 218v303c0 120 94 218 209 218s209 -88 209 -208c0 -21 -16 -38 -36 -38s-36 17 -36 38c0 78 -62 132 -137 132s-137 -64 -137 -142v-303c0 -79 62 -143 137 -143s137 64 137 143v114h-137c-20 0 -36 17 -36 37
c0 21 16 38 36 38h173c20 0 36 -17 36 -38z" />
    <glyph glyph-name="H" unicode="H" 
d="M486 701v-663c0 -21 -16 -38 -36 -38c-19 0 -36 17 -36 38v294h-262v-294c0 -21 -17 -38 -36 -38c-20 0 -36 17 -36 38v663c0 20 16 38 36 38c19 0 36 -18 36 -38v-294h262v294c0 20 17 38 36 38c20 0 36 -18 36 -38z" />
    <glyph glyph-name="I" unicode="I" 
d="M496 38c0 -21 -16 -38 -36 -38h-354c-20 0 -36 17 -36 38c0 20 16 37 36 37h141v589h-141c-20 0 -36 17 -36 38c0 20 16 37 36 37h354c20 0 36 -17 36 -37c0 -21 -16 -38 -36 -38h-141v-589h141c20 0 36 -17 36 -37z" />
    <glyph glyph-name="J" unicode="J" 
d="M499 702v-484c0 -120 -95 -218 -210 -218s-210 98 -210 218c0 20 17 37 37 37c19 0 36 -17 36 -37c0 -78 62 -143 137 -143s137 65 137 143v446h-323c-20 0 -36 17 -36 38c0 20 16 37 36 37h359c20 0 37 -17 37 -37z" />
    <glyph glyph-name="K" unicode="K" 
d="M507 38c0 -21 -16 -38 -36 -38c-13 0 -25 7 -31 18l-206 348l-102 -166v-162c0 -21 -17 -38 -37 -38s-36 17 -36 38v664c0 20 16 37 36 37s37 -17 37 -37v-362l236 382c7 11 18 17 31 17c20 0 36 -17 36 -37c0 -7 -2 -14 -6 -20l-151 -245l224 -380c3 -6 5 -12 5 -19z
" />
    <glyph glyph-name="L" unicode="L" 
d="M501 38c0 -21 -17 -38 -36 -38h-364c-19 0 -36 17 -36 38v664c0 20 17 37 36 37c20 0 37 -17 37 -37v-627h327c19 0 36 -17 36 -37z" />
    <glyph glyph-name="M" unicode="M" 
d="M524 702v-664c0 -21 -16 -38 -36 -38s-37 17 -37 38v500l-135 -286c-6 -13 -19 -21 -33 -21s-27 8 -33 21l-135 286v-500c0 -21 -17 -38 -37 -38s-36 17 -36 38v664c0 20 17 37 36 37c14 0 27 -8 33 -21l172 -364l172 364c6 13 19 21 33 21c19 0 36 -17 36 -37z" />
    <glyph glyph-name="N" unicode="N" 
d="M501 702v-664c0 -21 -16 -38 -36 -38c-13 0 -25 7 -31 19l-297 540v-521c0 -21 -16 -38 -36 -38s-36 17 -36 38v664c0 20 16 37 36 37c13 0 25 -7 31 -19l297 -540v522c0 20 16 37 36 37s36 -17 36 -37z" />
    <glyph glyph-name="O" unicode="O" 
d="M420 215v306c0 78 -62 142 -137 142s-137 -64 -137 -142v-306c0 -78 62 -143 137 -143s137 65 137 143zM493 521v-306c0 -120 -95 -218 -210 -218s-210 98 -210 218v306c0 120 95 218 210 218s210 -98 210 -218z" />
    <glyph glyph-name="P" unicode="P" 
d="M417 512c0 83 -65 151 -145 151h-123v-302h123c80 0 145 68 145 151zM490 512c0 -125 -98 -227 -218 -227h-123v-247c0 -21 -17 -38 -37 -38c-19 0 -36 17 -36 38v663c0 20 17 38 36 38h160c120 0 218 -102 218 -227z" />
    <glyph glyph-name="Q" unicode="Q" 
d="M419 219v301c0 78 -63 143 -138 143c-76 0 -138 -65 -138 -143v-301c0 -79 62 -144 138 -144c25 0 51 8 73 22l-99 102c-7 7 -11 17 -11 27c0 21 17 38 37 38c9 0 19 -4 25 -11l97 -101c10 21 16 44 16 67zM496 40c0 -20 -17 -37 -36 -37c-10 0 -26 10 -41 25
c-5 5 -9 10 -14 15c-36 -28 -79 -43 -124 -43c-116 0 -211 98 -211 219v301c0 120 95 219 211 219s210 -99 210 -219v-301c0 -43 -12 -85 -35 -121c5 -5 10 -10 16 -15c14 -16 24 -33 24 -43z" />
    <glyph glyph-name="R" unicode="R" 
d="M405 512c0 83 -66 151 -146 151h-124v-302h124c80 0 146 68 146 151zM504 38c0 -21 -17 -38 -36 -38c-12 0 -23 6 -30 16l-187 269h-116v-247c0 -21 -17 -38 -37 -38c-19 0 -36 17 -36 38v663c0 20 17 38 36 38h161c120 0 219 -102 219 -227c0 -97 -60 -182 -146 -214
l165 -239c5 -6 7 -14 7 -21z" />
    <glyph glyph-name="S" unicode="S" 
d="M483 173c-3 -103 -92 -173 -191 -173c-121 0 -213 103 -213 222c0 20 16 38 37 38c20 0 36 -18 36 -38c0 -78 60 -146 140 -146c58 0 118 37 119 99c1 28 -10 57 -32 75l-199 161c-59 48 -78 131 -55 203c24 75 88 125 167 125s161 -50 191 -125c8 -19 3 -41 -17 -51
c-19 -10 -38 0 -48 18c-28 49 -66 82 -126 82c-47 0 -83 -29 -98 -73c-14 -43 -4 -90 32 -120l199 -161c40 -32 60 -85 58 -136z" />
    <glyph glyph-name="T" unicode="T" 
d="M562 701c0 -21 -17 -38 -37 -38h-205v-625c0 -21 -17 -38 -37 -38s-37 17 -37 38v625h-205c-25 0 -37 26 -37 41c0 27 24 35 37 35h484c20 0 37 -18 37 -38z" />
    <glyph glyph-name="U" unicode="U" 
d="M493 701v-482c0 -121 -94 -219 -210 -219s-210 98 -210 219v482c0 20 16 38 36 38s36 -18 36 -38v-482c0 -79 62 -144 138 -144s138 65 138 144v482c0 20 16 38 36 38s36 -18 36 -38z" />
    <glyph glyph-name="V" unicode="V" 
d="M516 701c0 -5 -7 -30 -14 -56c-7 -24 -15 -49 -17 -57l-154 -516c-2 -7 -3 -15 -5 -22c-2 -8 -5 -18 -9 -26c-5 -10 -14 -24 -34 -24s-29 14 -34 24c-4 8 -7 18 -9 26c-2 7 -3 15 -5 22l-154 516c-2 8 -10 33 -17 57c-7 26 -14 51 -14 56c0 20 17 38 37 38
c16 0 31 -12 35 -27l161 -545l161 545c4 15 19 27 35 27c20 0 37 -18 37 -38z" />
    <glyph glyph-name="W" unicode="W" 
d="M525 701v-663c0 -21 -17 -38 -37 -38c-14 0 -27 8 -33 21l-172 366l-172 -366c-6 -13 -19 -21 -33 -21c-20 0 -37 17 -37 38v663c0 20 17 38 37 38s36 -18 36 -38v-499l136 287c6 13 19 22 33 22s27 -9 33 -22l136 -287v499c0 20 16 38 36 38s37 -18 37 -38z" />
    <glyph glyph-name="X" unicode="X" 
d="M488 38c0 -21 -17 -38 -37 -38c-13 0 -26 8 -32 20l-136 269l-136 -269c-6 -12 -19 -20 -32 -20c-20 0 -37 17 -37 38c0 6 2 12 5 17l159 314l-159 314c-3 6 -5 12 -5 18c0 20 17 38 37 38c13 0 25 -8 32 -21l136 -268l136 268c7 13 19 21 32 21c20 0 37 -18 37 -38
c0 -6 -2 -12 -5 -18l-159 -314l159 -314c3 -5 5 -11 5 -17z" />
    <glyph glyph-name="Y" unicode="Y" 
d="M487 701c0 -6 -2 -12 -5 -18l-163 -323v-322c0 -21 -16 -38 -36 -38s-36 17 -36 38v322l-163 323c-3 6 -5 12 -5 18c0 20 17 38 36 38c14 0 26 -8 32 -21l136 -268l136 268c6 13 18 21 32 21c19 0 36 -18 36 -38z" />
    <glyph glyph-name="Z" unicode="Z" 
d="M512 701c0 -7 -2 -14 -5 -20l-352 -606h321c19 0 36 -17 36 -37c0 -21 -17 -38 -36 -38h-386c-19 0 -36 17 -36 38c0 7 2 13 5 19l352 606h-281c-20 0 -37 17 -37 38c0 20 17 38 37 38h346c19 0 36 -18 36 -38z" />
    <glyph glyph-name="bracketleft" unicode="[" 
d="M411 -197c0 -21 -16 -38 -36 -38h-184c-20 0 -36 17 -36 38v896c0 22 16 40 36 40h184c20 0 36 -18 36 -40c0 -21 -16 -38 -36 -38h-148v-819h148c20 0 36 -17 36 -39z" />
    <glyph glyph-name="backslash" unicode="\" 
d="M553 -154c0 -20 -18 -35 -36 -35c-13 0 -24 8 -30 19l-469 857c-2 5 -4 11 -4 17c0 19 18 35 37 35c13 0 22 -9 29 -20l469 -856c3 -6 4 -12 4 -17z" />
    <glyph glyph-name="bracketright" unicode="]" 
d="M411 699v-896c0 -21 -16 -38 -36 -38h-184c-20 0 -36 17 -36 38c0 22 16 39 36 39h148v819h-148c-20 0 -36 17 -36 38c0 22 16 40 36 40h184c20 0 36 -18 36 -40z" />
    <glyph glyph-name="asciicircum" unicode="^" 
d="M422 857c0 -17 -15 -31 -31 -31c-8 0 -16 4 -21 9l-87 87l-87 -87c-5 -5 -13 -9 -21 -9c-16 0 -31 14 -31 31c0 9 7 18 13 25c7 9 16 16 24 25c20 21 74 87 102 87s82 -66 102 -87c8 -9 17 -16 24 -25c6 -7 13 -16 13 -25z" />
    <glyph glyph-name="underscore" unicode="_" 
d="M515 -35h-464c-46 0 -46 70 0 70h464c46 0 46 -70 0 -70z" />
    <glyph glyph-name="quoteleft" unicode="&#x2018;" 
d="M328 769l33 -30l-80 -173c41 -1 74 -36 74 -79s-34 -79 -76 -79c-41 0 -74 36 -74 79v79z" />
    <glyph glyph-name="a" unicode="a" 
d="M423 206v23c-14 -6 -28 -9 -44 -9h-162c-41 0 -74 -34 -74 -75s33 -75 74 -75h72c74 0 134 61 134 136zM492 206v-171c0 -19 -15 -35 -35 -35c-19 0 -34 16 -34 35v16c-36 -32 -83 -51 -134 -51h-72c-79 0 -143 65 -143 145s64 145 143 145h162c23 0 42 18 44 41
c-3 47 -48 92 -125 92c-62 0 -114 -31 -130 -70c-8 -18 -28 -26 -46 -19c-17 7 -26 28 -18 46c28 69 107 113 194 113c103 0 184 -64 193 -152c1 -2 1 -5 1 -7v-4v-3v-121z" />
    <glyph glyph-name="b" unicode="b" 
d="M422 220v53c0 80 -63 145 -139 145c-77 0 -139 -65 -139 -145v-53c0 -79 63 -144 139 -144s139 65 139 144zM495 273v-53c0 -121 -95 -220 -212 -220c-52 0 -101 20 -139 54v-16c0 -21 -17 -38 -37 -38s-36 17 -36 38v673c0 20 16 37 36 37s37 -17 37 -37v-272
c38 35 87 55 139 55c117 0 212 -99 212 -221z" />
    <glyph glyph-name="c" unicode="c" 
d="M485 130c0 -7 -2 -13 -5 -18c-35 -69 -111 -112 -186 -112c-117 0 -213 97 -213 216v61c0 119 96 216 213 216c75 0 151 -43 186 -112c3 -5 5 -11 5 -17c0 -20 -17 -37 -37 -37c-26 0 -34 25 -48 42c-24 31 -66 50 -106 50c-77 0 -140 -64 -140 -142v-61
c0 -78 63 -142 140 -142c40 0 82 19 106 50c14 17 22 43 48 43c20 0 37 -17 37 -37z" />
    <glyph glyph-name="d" unicode="d" 
d="M422 220v53c0 80 -63 145 -139 145c-77 0 -139 -65 -139 -145v-53c0 -79 62 -144 139 -144c76 0 139 65 139 144zM495 711v-673c0 -21 -16 -38 -36 -38s-37 17 -37 38v16c-38 -34 -87 -54 -139 -54c-117 0 -212 99 -212 220v53c0 122 95 221 212 221
c52 0 101 -20 139 -55v272c0 20 17 37 37 37s36 -17 36 -37z" />
    <glyph glyph-name="e" unicode="e" 
d="M143 287h278c-12 87 -65 132 -138 132c-74 0 -135 -58 -140 -132zM497 250c0 -21 -17 -37 -37 -37h-317c1 -77 64 -139 140 -139c51 0 98 28 123 74c10 17 32 24 50 14c17 -10 24 -32 14 -50c-38 -69 -109 -112 -187 -112c-118 0 -214 97 -214 216v61
c0 120 96 216 214 216c127 0 214 -97 214 -243z" />
    <glyph glyph-name="f" unicode="f" 
d="M496 38c0 -21 -17 -38 -36 -38h-354c-19 0 -36 17 -36 38s17 38 36 38h124v342h-124c-19 0 -36 17 -36 38c0 20 17 38 36 38h124v119c0 76 60 138 133 138s133 -62 133 -138c0 -20 -17 -38 -36 -38c-20 0 -37 18 -37 38c0 34 -27 63 -60 63s-60 -29 -60 -63v-119h157
c19 0 36 -18 36 -38c0 -21 -17 -38 -36 -38h-157v-342h157c19 0 36 -17 36 -38z" />
    <glyph glyph-name="g" unicode="g" 
d="M430 -52c0 23 -19 42 -41 42h-173l-64 -51c-10 -8 -16 -21 -16 -33c0 -24 19 -43 41 -43h171c45 0 82 38 82 85zM394 311c0 61 -49 111 -109 111c-59 0 -108 -50 -108 -111c0 -62 49 -112 108 -112c60 0 109 50 109 112zM499 -52c0 -86 -68 -156 -151 -156h-171
c-61 0 -110 51 -110 114c0 34 16 68 43 89l15 12c-35 22 -58 61 -58 105c0 50 20 96 54 130c-9 21 -13 44 -13 69c0 100 80 183 177 183c50 0 95 -21 127 -55l34 22c16 11 37 6 48 -10c10 -17 5 -39 -11 -50l-33 -22c9 -21 13 -44 13 -68c0 -101 -80 -183 -178 -183
c-48 0 -93 20 -125 53c-15 -19 -24 -43 -24 -69c0 -28 22 -50 49 -50h19h185c61 0 110 -51 110 -114z" />
    <glyph glyph-name="h" unicode="h" 
d="M496 272v-234c0 -21 -17 -38 -36 -38c-20 0 -37 17 -37 38v234c0 80 -63 146 -140 146s-140 -66 -140 -146v-234c0 -21 -17 -38 -37 -38c-19 0 -36 17 -36 38v663c0 20 17 38 36 38c20 0 37 -18 37 -38v-262c38 35 88 55 140 55c117 0 213 -100 213 -222z" />
    <glyph glyph-name="i" unicode="i" 
d="M497 38c0 -21 -17 -38 -37 -38h-354c-20 0 -37 17 -37 38c0 20 17 38 37 38h140v342h-140c-20 0 -37 17 -37 38c0 20 17 38 37 38h177c20 0 37 -18 37 -38v-380h140c20 0 37 -18 37 -38zM333 635c0 -34 -27 -62 -61 -62c-33 0 -60 28 -60 62c0 35 27 63 60 63
c34 0 61 -28 61 -63z" />
    <glyph glyph-name="j" unicode="j" 
d="M497 455v-462c0 -123 -96 -223 -214 -223s-214 100 -214 223c0 21 17 39 37 39s37 -18 37 -39c0 -80 63 -147 140 -147s140 67 140 147v424h-233c-20 0 -37 17 -37 38s17 39 37 39h270c20 0 37 -18 37 -39zM481 634c0 -34 -27 -63 -60 -63s-60 29 -60 63
c0 35 27 64 60 64s60 -29 60 -64z" />
    <glyph glyph-name="k" unicode="k" 
d="M488 467c0 -11 -4 -21 -11 -28l-168 -161l171 -216c5 -7 8 -15 8 -24c0 -21 -16 -38 -36 -38c-11 0 -21 5 -28 14l-169 213l-105 -100v-89c0 -21 -16 -38 -36 -38s-36 17 -36 38v675c0 20 16 38 36 38s36 -18 36 -38v-483l277 265c7 6 16 10 25 10c20 0 36 -17 36 -38z
" />
    <glyph glyph-name="l" unicode="l" 
d="M541 175c0 -97 -77 -176 -172 -176c-94 0 -172 79 -172 176v488h-135c-21 0 -37 17 -37 38s16 38 37 38h172c21 0 37 -17 37 -38v-526c0 -55 44 -100 98 -100s98 45 98 100c0 21 17 38 37 38c21 0 37 -17 37 -38z" />
    <glyph glyph-name="m" unicode="m" 
d="M494 368v-331c0 -20 -17 -37 -37 -37s-36 17 -36 37v331c0 28 -23 51 -51 51s-50 -23 -50 -51v-331c0 -20 -17 -37 -37 -37s-37 17 -37 37v331c0 28 -22 51 -50 51s-51 -23 -51 -51v-331c0 -20 -16 -37 -36 -37s-37 17 -37 37v419c0 21 17 37 37 37c15 0 24 -5 29 -14
c18 9 38 14 58 14c33 0 64 -13 87 -36c23 23 54 36 87 36c68 0 124 -56 124 -125z" />
    <glyph glyph-name="n" unicode="n" 
d="M497 277v-240c0 -20 -17 -37 -37 -37s-37 17 -37 37v240c0 78 -63 142 -140 142s-140 -64 -140 -142v-240c0 -20 -17 -37 -37 -37s-37 17 -37 37v419c0 21 17 37 37 37s37 -16 37 -37v-16c38 34 88 53 140 53c118 0 214 -97 214 -216z" />
    <glyph glyph-name="o" unicode="o" 
d="M423 216v61c0 78 -62 142 -140 142s-140 -64 -140 -142v-61c0 -77 62 -142 140 -142s140 65 140 142zM497 277v-61c0 -118 -95 -216 -214 -216s-214 98 -214 216v61c0 118 95 216 214 216s214 -98 214 -216z" />
    <glyph glyph-name="p" unicode="p" 
d="M423 221v51c0 80 -63 146 -140 146s-140 -66 -140 -146v-51c0 -80 63 -145 140 -145s140 65 140 145zM497 272v-51c0 -122 -96 -221 -214 -221c-52 0 -102 20 -140 55v-247c0 -21 -17 -38 -37 -38s-37 17 -37 38v648c0 20 17 37 37 37s37 -17 37 -37v-17
c38 34 88 54 140 54c118 0 214 -99 214 -221z" />
    <glyph glyph-name="q" unicode="q" 
d="M423 221v51c0 80 -63 146 -140 146s-140 -66 -140 -146v-51c0 -80 63 -145 140 -145s140 65 140 145zM497 456v-648c0 -21 -17 -38 -37 -38s-37 17 -37 38v247c-38 -35 -88 -55 -140 -55c-118 0 -214 99 -214 221v51c0 122 96 221 214 221c52 0 102 -20 140 -54v17
c0 20 17 37 37 37s37 -17 37 -37z" />
    <glyph glyph-name="r" unicode="r" 
d="M510 404c-11 -16 -33 -19 -49 -8c-24 18 -53 27 -84 27c-79 0 -144 -65 -144 -145v-208h140c19 0 35 -16 35 -35s-16 -35 -35 -35h-175h-114c-19 0 -35 16 -35 35s16 35 35 35h80v208v180c0 20 15 35 34 35s35 -15 35 -35v-21c38 35 89 56 144 56c45 0 89 -14 125 -40
c16 -12 19 -33 8 -49z" />
    <glyph glyph-name="s" unicode="s" 
d="M497 147c0 -92 -96 -147 -212 -147c-113 0 -216 67 -216 161c0 21 17 37 37 37s37 -16 37 -37c0 -40 57 -87 142 -87c92 0 138 37 138 73c0 56 -54 56 -138 63c-44 4 -94 8 -134 25c-42 19 -72 53 -72 112c0 91 89 147 199 147c83 0 164 -36 199 -94
c11 -17 5 -40 -12 -51c-17 -10 -40 -5 -50 13c-19 31 -74 58 -137 58c-82 0 -126 -37 -126 -73c0 -55 54 -56 139 -63c98 -8 206 -23 206 -137z" />
    <glyph glyph-name="t" unicode="t" 
d="M528 456c0 -21 -17 -38 -37 -38h-251v-233c0 -60 48 -110 107 -110c58 0 107 50 107 110c0 20 16 37 37 37c20 0 37 -17 37 -37c0 -102 -82 -185 -181 -185c-100 0 -181 83 -181 185v233h-91c-20 0 -37 17 -37 38c0 20 17 38 37 38h91v138c0 21 17 38 37 38
s37 -17 37 -38v-138h251c20 0 37 -18 37 -38z" />
    <glyph glyph-name="u" unicode="u" 
d="M497 456v-419c0 -20 -17 -37 -37 -37s-37 17 -37 37v16c-38 -34 -88 -53 -140 -53c-118 0 -214 97 -214 216v240c0 21 17 37 37 37s37 -16 37 -37v-240c0 -78 63 -142 140 -142s140 64 140 142v240c0 21 17 37 37 37s37 -16 37 -37z" />
    <glyph glyph-name="v" unicode="v" 
d="M497 456c0 -11 -37 -96 -70 -175l-81 -189c-10 -25 -17 -50 -31 -72c-5 -9 -14 -20 -32 -20s-27 11 -32 20c-14 22 -21 47 -31 72l-81 189c-33 79 -70 164 -70 175c0 21 17 37 37 37c15 0 28 -9 34 -22l143 -340l143 340c6 13 19 22 34 22c20 0 37 -16 37 -37z" />
    <glyph glyph-name="w" unicode="w" 
d="M525 459l-70 -424c-3 -17 -18 -29 -35 -29c-13 0 -25 7 -31 19l-106 200l-106 -200c-7 -14 -22 -21 -37 -18c-15 2 -27 14 -29 28l-70 424c-3 19 10 37 29 40s37 -10 40 -29l53 -341l89 187c6 12 18 18 31 18s25 -6 31 -18l89 -187l53 341c3 19 21 32 40 29
s32 -21 29 -40z" />
    <glyph glyph-name="x" unicode="x" 
d="M497 456c0 -8 -3 -17 -9 -24l-157 -185l157 -186c6 -7 9 -15 9 -24c0 -20 -17 -37 -37 -37c-11 0 -21 5 -28 13l-149 177l-149 -177c-7 -8 -17 -13 -28 -13c-20 0 -37 17 -37 37c0 9 3 17 9 24l157 186l-157 185c-6 7 -9 16 -9 24c0 21 17 37 37 37c11 0 21 -4 28 -13
l149 -176l149 176c7 9 17 13 28 13c20 0 37 -16 37 -37z" />
    <glyph glyph-name="y" unicode="y" 
d="M494 441l-267 -648c-6 -15 -20 -23 -34 -23c-25 0 -44 27 -34 52l84 204l-171 415c-8 19 1 40 20 49c18 8 40 0 48 -20l143 -348l143 348c8 20 30 28 48 20c19 -9 28 -30 20 -49z" />
    <glyph glyph-name="z" unicode="z" 
d="M512 37c0 -20 -17 -37 -37 -37h-384c-20 0 -37 17 -37 37c0 9 3 17 9 24l304 358h-276c-20 0 -37 17 -37 37c0 21 17 37 37 37h356c20 0 37 -16 37 -37c0 -8 -3 -17 -9 -24l-304 -358h304c20 0 37 -17 37 -37z" />
    <glyph glyph-name="braceleft" unicode="{" 
d="M427 -197c0 -21 -16 -38 -36 -38h-35c-48 0 -88 21 -117 64c-28 42 -35 90 -17 137l17 44c12 30 12 61 2 93s-29 55 -56 73l-29 20c-11 7 -17 18 -17 33c0 14 6 24 17 32l34 24c51 36 76 100 57 160l-34 109c-15 49 -7 93 21 133c28 41 66 61 115 61h42
c20 0 36 -17 36 -39c0 -21 -16 -38 -36 -38h-42c-24 0 -42 -10 -55 -30c-14 -21 -18 -42 -11 -63l35 -109c15 -46 13 -94 -3 -140c-15 -42 -39 -75 -73 -101c33 -27 56 -62 69 -104c15 -47 15 -95 -3 -141l-17 -44c-9 -24 -5 -47 8 -66c14 -21 33 -31 57 -31h35
c20 0 36 -17 36 -39z" />
    <glyph glyph-name="bar" unicode="|" 
d="M318 704v-904c0 -21 -15 -35 -35 -35s-35 14 -35 35v904c0 20 15 35 35 35s35 -15 35 -35z" />
    <glyph glyph-name="braceright" unicode="}" 
d="M427 229c0 -15 -6 -26 -17 -33l-29 -20c-27 -18 -46 -41 -56 -73s-10 -63 2 -93l17 -44c18 -47 11 -95 -17 -137c-29 -43 -69 -64 -117 -64h-35c-20 0 -36 17 -36 38c0 22 16 39 36 39h35c24 0 43 10 57 31c13 19 17 42 8 66l-17 44c-18 46 -18 94 -3 141
c13 42 36 77 69 104c-34 26 -58 59 -73 101c-16 46 -18 94 -3 140l35 109c7 21 3 42 -11 63c-13 20 -31 30 -55 30h-42c-20 0 -36 17 -36 38c0 22 16 39 36 39h42c49 0 87 -20 115 -61c28 -40 36 -84 21 -133l-34 -109c-19 -60 6 -124 57 -160l34 -24c11 -8 17 -18 17 -32z
" />
    <glyph glyph-name="asciitilde" unicode="~" 
d="M446 799c0 -35 -35 -77 -74 -77c-48 0 -99 45 -142 45c-48 0 -36 -56 -72 -56c-20 0 -38 17 -38 37c0 6 1 11 4 16c16 37 44 73 88 73c51 0 102 -47 139 -47c31 0 29 41 65 41c18 0 30 -14 30 -32z" />
    <glyph glyph-name="exclamdown" unicode="&#xa1;" 
d="M318 460v-425c0 -21 -15 -35 -35 -35s-35 14 -35 35v425c0 21 15 35 35 35s35 -14 35 -35zM359 659c0 -41 -33 -79 -76 -79s-76 38 -76 79c0 42 33 80 76 80s76 -38 76 -80z" />
    <glyph glyph-name="cent" unicode="&#xa2;" 
d="M258 79v336c-60 -17 -104 -73 -104 -138v-61c0 -64 44 -121 104 -137zM485 130c0 -7 -2 -12 -5 -18c-29 -58 -89 -98 -152 -109v-93c0 -20 -15 -35 -35 -35s-35 15 -35 35v93c-101 18 -177 108 -177 213v61c0 106 76 196 177 213v114c0 20 15 35 35 35s35 -15 35 -35
v-114c64 -10 123 -51 152 -109c3 -5 5 -11 5 -17c0 -20 -17 -37 -37 -37c-26 0 -35 25 -48 42c-18 23 -44 39 -72 46v-337c28 8 55 24 72 46c14 17 22 43 48 43c20 0 37 -18 37 -37z" />
    <glyph glyph-name="sterling" unicode="&#xa3;" 
d="M538 38c0 -21 -16 -38 -37 -38h-436c-16 0 -31 11 -36 27c-5 17 2 34 16 43c116 77 129 114 95 330c0 5 -2 10 -2 15h-73c-21 0 -37 17 -37 38s16 39 37 39h69c7 124 110 247 241 247h126c20 0 37 -18 37 -39s-17 -38 -37 -38h-126c-87 0 -158 -86 -165 -170h165
c21 0 38 -18 38 -39s-17 -38 -38 -38h-161l1 -3c25 -173 27 -259 -42 -335h328c20 0 37 -17 37 -39z" />
    <glyph glyph-name="fraction" unicode="&#x2044;" 
d="M553 704c0 -6 -2 -12 -4 -17l-469 -857c-7 -11 -16 -19 -29 -19c-19 0 -37 15 -37 35c0 5 2 11 4 17l469 856c6 11 17 20 30 20c18 0 36 -16 36 -35z" />
    <glyph glyph-name="yen" unicode="&#xa5;" 
d="M487 701c0 -6 -2 -12 -5 -18l-160 -318h123c46 0 46 -70 0 -70h-126v-90h126c46 0 46 -70 0 -70h-126v-97c0 -21 -16 -38 -36 -38s-36 17 -36 38v97h-126c-46 0 -46 70 0 70h126v90h-126c-46 0 -46 70 0 70h123l-160 318c-3 6 -5 12 -5 18c0 20 17 38 36 38
c14 0 26 -8 32 -21l136 -268l136 268c6 13 18 21 32 21c19 0 36 -18 36 -38z" />
    <glyph glyph-name="florin" unicode="&#x192;" 
d="M545 510c0 -24 -19 -43 -42 -43h-73c-33 0 -61 -24 -67 -56l-11 -61h101c23 0 42 -19 42 -42c0 -24 -19 -43 -42 -43h-116l-41 -223c-21 -114 -119 -197 -233 -197c-23 0 -42 19 -42 42c0 24 19 43 42 43c74 0 138 53 151 127l37 208h-10c-24 0 -42 19 -42 43
c0 23 18 42 42 42h26l14 76c13 73 76 126 149 126h73c23 0 42 -19 42 -42z" />
    <glyph glyph-name="section" unicode="&#xa7;" 
 />
    <glyph glyph-name="quotesingle" unicode="'" 
d="M318 704v-168c0 -20 -15 -35 -35 -35s-35 15 -35 35v168c0 20 15 35 35 35s35 -15 35 -35z" />
    <glyph glyph-name="quotedblleft" unicode="&#x201c;" 
d="M229 769l33 -30l-80 -173c41 -1 74 -36 74 -79s-34 -79 -76 -79c-41 0 -74 36 -74 79v79zM427 769l33 -30l-80 -173c41 -1 74 -36 74 -79s-34 -79 -76 -79c-41 0 -74 36 -74 79v79z" />
    <glyph glyph-name="guillemotleft" unicode="&#xab;" 
 />
    <glyph glyph-name="guilsinglleft" unicode="&#x2039;" 
 />
    <glyph glyph-name="guilsinglright" unicode="&#x203a;" 
 />
    <glyph glyph-name="fi" unicode="&#xfb01;" 
 />
    <glyph glyph-name="fl" unicode="&#xfb02;" 
 />
    <glyph glyph-name="endash" unicode="&#x2013;" 
d="M415 215h-264c-46 0 -46 70 0 70h264c46 0 46 -70 0 -70z" />
    <glyph glyph-name="dagger" unicode="&#x2020;" 
d="M533 320c0 -20 -14 -35 -35 -35h-180v-485c0 -21 -15 -35 -35 -35s-35 14 -35 35v485h-180c-21 0 -35 15 -35 35s14 35 35 35h180v349c0 20 15 35 35 35s35 -15 35 -35v-349h180c21 0 35 -15 35 -35z" />
    <glyph glyph-name="daggerdbl" unicode="&#x2021;" 
 />
    <glyph glyph-name="periodcentered" unicode="&#xb7;" 
 />
    <glyph glyph-name="paragraph" unicode="&#xb6;" 
d="M479 709v-680c0 -16 -13 -29 -29 -29s-30 13 -30 29v651h-64v-391v-260c0 -16 -14 -29 -30 -29s-29 13 -29 29v233c-118 14 -210 115 -210 237c0 132 107 240 239 240v0h124c16 0 29 -14 29 -30z" />
    <glyph glyph-name="bullet" unicode="&#x2022;" 
d="M374 252c0 -52 -41 -95 -91 -95s-91 43 -91 95c0 53 41 96 91 96s91 -43 91 -96z" />
    <glyph glyph-name="quotesinglbase" unicode="&#x201a;" 
 />
    <glyph glyph-name="quotedblbase" unicode="&#x201e;" 
 />
    <glyph glyph-name="quotedblright" unicode="&#x201d;" 
d="M262 663v-79l-123 -203l-33 31l80 172c-41 1 -74 37 -74 79c0 44 34 79 76 79c41 0 74 -35 74 -79zM460 663v-79l-123 -203l-33 31l80 172c-41 1 -74 37 -74 79c0 44 34 79 76 79c41 0 74 -35 74 -79z" />
    <glyph glyph-name="guillemotright" unicode="&#xbb;" 
 />
    <glyph glyph-name="ellipsis" unicode="&#x2026;" 
 />
    <glyph glyph-name="perthousand" unicode="&#x2030;" 
 />
    <glyph glyph-name="questiondown" unicode="&#xbf;" 
d="M497 219c0 -121 -96 -219 -214 -219s-214 98 -214 219v32c0 109 77 199 177 216v26c0 21 17 38 37 38s37 -17 37 -38v-60c0 -21 -17 -37 -37 -37c-77 0 -140 -65 -140 -145v-32c0 -79 63 -144 140 -144s140 65 140 144c0 21 17 38 37 38s37 -17 37 -38zM355 659
c0 -43 -34 -79 -75 -79c-42 0 -76 36 -76 79c0 44 34 80 76 80c41 0 75 -36 75 -80z" />
    <glyph glyph-name="grave" unicode="`" 
d="M352 631c-7 -18 -27 -30 -45 -23c-6 2 -10 5 -15 10l-70 76c-9 9 -12 22 -8 34c7 18 26 30 45 23c5 -2 10 -6 14 -10l71 -76c9 -9 12 -22 8 -34z" />
    <glyph glyph-name="acute" unicode="&#xb4;" 
d="M354 729c4 -12 0 -25 -8 -35l-74 -85c-4 -4 -9 -7 -15 -10c-18 -6 -38 6 -45 23c-4 13 0 25 8 35l74 85c4 4 9 8 15 10c18 7 38 -5 45 -23z" />
    <glyph glyph-name="circumflex" unicode="&#x2c6;" 
d="M422 607c0 -17 -15 -31 -31 -31c-8 0 -16 4 -21 9l-87 87l-87 -87c-5 -5 -13 -9 -21 -9c-16 0 -31 14 -31 31c0 9 7 18 13 25c7 9 16 16 24 25c20 21 74 87 102 87s82 -66 102 -87c8 -9 17 -16 24 -25c6 -7 13 -16 13 -25z" />
    <glyph glyph-name="tilde" unicode="&#x2dc;" 
d="M446 650c0 -35 -35 -77 -74 -77c-48 0 -99 45 -142 45c-48 0 -36 -56 -72 -56c-20 0 -38 18 -38 37c0 6 1 12 4 17c16 36 44 72 88 72c51 0 102 -46 139 -46c31 0 29 40 65 40c18 0 30 -14 30 -32z" />
    <glyph glyph-name="macron" unicode="&#xaf;" 
 />
    <glyph glyph-name="breve" unicode="&#x2d8;" 
 />
    <glyph glyph-name="dotaccent" unicode="&#x2d9;" 
 />
    <glyph glyph-name="dieresis" unicode="&#xa8;" 
d="M245 635c0 -34 -28 -62 -61 -62s-60 28 -60 62c0 35 27 63 60 63s61 -28 61 -63zM442 635c0 -34 -27 -62 -60 -62s-61 28 -61 62c0 35 28 63 61 63s60 -28 60 -63z" />
    <glyph glyph-name="ring" unicode="&#x2da;" 
d="M330 646c0 26 -21 47 -47 47s-47 -21 -47 -47s21 -47 47 -47s47 21 47 47zM376 646c0 -51 -42 -93 -93 -93s-93 42 -93 93s42 93 93 93s93 -42 93 -93z" />
    <glyph glyph-name="cedilla" unicode="&#xb8;" 
d="M392 -93c0 -76 -86 -93 -146 -93c-28 0 -72 -3 -72 36c0 20 14 35 34 35c15 0 29 -2 43 -2c15 0 71 2 71 26c0 16 -24 22 -36 23c-17 1 -35 5 -35 26c0 26 44 113 72 113c20 0 35 -14 35 -35c0 -13 -23 -46 -29 -58c39 -11 63 -35 63 -71z" />
    <glyph glyph-name="hungarumlaut" unicode="&#x2dd;" 
 />
    <glyph glyph-name="ogonek" unicode="&#x2db;" 
 />
    <glyph glyph-name="caron" unicode="&#x2c7;" 
 />
    <glyph glyph-name="emdash" unicode="&#x2014;" 
d="M583 250c0 -20 -14 -35 -35 -35h-530c-21 0 -35 15 -35 35s14 35 35 35h530c21 0 35 -15 35 -35z" />
    <glyph glyph-name="AE" unicode="&#xc6;" 
 />
    <glyph glyph-name="ordfeminine" unicode="&#xaa;" 
 />
    <glyph glyph-name="Lslash" unicode="&#x141;" 
 />
    <glyph glyph-name="Oslash" unicode="&#xd8;" 
d="M420 215v306c0 7 0 14 -1 21l-232 -423c25 -28 60 -47 99 -47c74 1 134 66 134 143zM152 201l229 419c-24 26 -58 43 -95 43c-74 -1 -134 -65 -134 -142v-306v-14zM553 796c0 -6 -2 -12 -5 -17l-80 -146c20 -33 31 -71 31 -112v-306c0 -120 -94 -218 -210 -218h-3h-3
c-51 0 -98 19 -135 51l-68 -125c-6 -12 -17 -20 -30 -20c-19 0 -37 15 -37 35c0 6 2 12 5 17l83 152c-18 32 -28 69 -28 108v306c0 120 95 218 210 218l3 -1l3 1c50 0 95 -18 131 -48l66 121c6 11 17 19 30 19c19 0 37 -15 37 -35z" />
    <glyph glyph-name="OE" unicode="&#x152;" 
 />
    <glyph glyph-name="ordmasculine" unicode="&#xba;" 
 />
    <glyph glyph-name="ae" unicode="&#xe6;" 
d="M248 137v35v68h-67c-37 0 -67 -30 -67 -68v-35c0 -37 30 -67 67 -67s67 30 67 67zM318 310h134v46c0 37 -30 67 -67 67s-67 -30 -67 -67v-46zM522 356v-81c0 -20 -15 -35 -35 -35h-169v-68v-35c0 -37 30 -67 67 -67c25 0 47 13 59 35c9 17 31 23 47 14
c17 -10 23 -31 14 -48c-24 -44 -70 -71 -120 -71c-40 0 -77 18 -102 46c-25 -28 -62 -46 -102 -46c-76 0 -137 62 -137 137v35c0 76 61 138 137 138h67v46v28c0 17 -22 39 -59 39c-29 0 -52 -14 -58 -30c-7 -18 -27 -26 -45 -19s-27 27 -20 45c19 46 69 74 123 74
c39 0 75 -15 100 -40c24 25 58 40 96 40c76 0 137 -61 137 -137z" />
    <glyph glyph-name="dotlessi" unicode="&#x131;" 
 />
    <glyph glyph-name="lslash" unicode="&#x142;" 
 />
    <glyph glyph-name="oslash" unicode="&#xf8;" 
d="M186 114l159 291c-19 9 -40 14 -62 14c-78 0 -140 -64 -140 -142v-61c0 -40 16 -76 43 -102zM423 216v61c0 39 -16 75 -42 101l-159 -290c19 -9 39 -14 61 -14c78 0 140 65 140 142zM497 277v-61c0 -118 -95 -216 -214 -216c-35 0 -67 8 -96 23l-34 -63
c-4 -7 -11 -12 -19 -12c-12 0 -24 10 -24 22c0 4 1 8 3 11l36 67c-48 40 -80 101 -80 168v61c0 118 95 216 214 216c35 0 68 -8 97 -23l33 59c4 7 11 13 19 13c12 0 23 -10 23 -22c0 -4 -1 -8 -3 -11l-34 -64c48 -40 79 -101 79 -168z" />
    <glyph glyph-name="oe" unicode="&#x153;" 
 />
    <glyph glyph-name="germandbls" unicode="&#xdf;" 
d="M489 229c0 -135 -108 -229 -240 -229c-21 0 -38 17 -38 38c0 22 17 39 38 39c91 0 165 59 165 152s-74 159 -165 159c-21 0 -38 17 -38 38s17 38 38 38c53 0 96 45 96 99s-43 99 -96 99s-97 -45 -97 -99v-526c0 -21 -17 -38 -37 -38c-21 0 -38 17 -38 38v526
c0 97 77 176 172 176c94 0 171 -79 171 -176c0 -49 -30 -96 -65 -129c87 -35 134 -115 134 -205z" />
    <glyph glyph-name="onesuperior" unicode="&#xb9;" 
 />
    <glyph glyph-name="logicalnot" unicode="&#xac;" 
d="M554 474v-220c0 -55 -86 -55 -86 0v179h-413c-57 0 -57 82 0 82h456c23 0 43 -19 43 -41z" />
    <glyph glyph-name="mu" unicode="&#xb5;" 
 />
    <glyph glyph-name="trademark" unicode="&#x2122;" 
d="M273 710c0 -15 -12 -28 -27 -28h-80v-247c0 -15 -12 -27 -27 -27s-28 12 -28 27v247h-79c-20 0 -27 20 -27 29c0 21 19 26 27 26h214c15 0 27 -13 27 -27zM561 710v-275c0 -15 -12 -27 -27 -27s-27 12 -27 27v155l-47 -97c-5 -10 -14 -16 -25 -16c-10 0 -19 6 -24 16
l-47 97v-155c0 -15 -12 -27 -27 -27c-16 0 -28 12 -28 27v275c0 15 12 27 28 27c10 0 20 -6 24 -15l74 -155l74 155c4 9 14 15 25 15c15 0 27 -12 27 -27z" />
    <glyph glyph-name="Eth" unicode="&#xd0;" 
 />
    <glyph glyph-name="onehalf" unicode="&#xbd;" 
 />
    <glyph glyph-name="plusminus" unicode="&#xb1;" 
d="M527 38c0 -21 -17 -38 -38 -38h-409c-21 0 -38 17 -38 38s17 38 38 38h409c21 0 38 -17 38 -38zM525 363c0 -21 -17 -38 -38 -38h-167v-169c0 -21 -17 -38 -38 -38s-38 17 -38 38v169h-167c-21 0 -38 17 -38 38s17 38 38 38h167v169c0 21 17 38 38 38s38 -17 38 -38v-169
h167c21 0 38 -17 38 -38z" />
    <glyph glyph-name="Thorn" unicode="&#xde;" 
 />
    <glyph glyph-name="onequarter" unicode="&#xbc;" 
 />
    <glyph glyph-name="divide" unicode="&#xf7;" 
d="M348 56c0 -31 -25 -56 -56 -56c-30 0 -56 25 -56 56s25 55 56 55s56 -24 56 -55zM538 243c0 -23 -19 -42 -42 -42h-426c-23 0 -42 19 -42 42s19 41 42 41h426c23 0 42 -18 42 -41zM348 429c0 -30 -25 -55 -56 -55c-30 0 -56 25 -56 55c0 32 25 55 56 55s56 -23 56 -55z
" />
    <glyph glyph-name="brokenbar" unicode="&#xa6;" 
 />
    <glyph glyph-name="degree" unicode="&#xb0;" 
d="M330 646c0 26 -21 47 -47 47s-47 -21 -47 -47s21 -47 47 -47s47 21 47 47zM376 646c0 -51 -42 -93 -93 -93s-93 42 -93 93s42 93 93 93s93 -42 93 -93z" />
    <glyph glyph-name="thorn" unicode="&#xfe;" 
 />
    <glyph glyph-name="threequarters" unicode="&#xbe;" 
 />
    <glyph glyph-name="twosuperior" unicode="&#xb2;" 
 />
    <glyph glyph-name="registered" unicode="&#xae;" 
d="M333 566c0 20 -15 38 -36 38h-37v-77h37c21 0 36 19 36 39zM364 566c0 -32 -21 -62 -59 -71c23 -39 49 -86 49 -93c0 -9 -7 -16 -15 -16c-6 0 -11 3 -14 8l-56 101h-9v-93c0 -9 -7 -16 -16 -16c-8 0 -15 7 -15 16v219c0 8 7 16 15 16h53c38 0 67 -34 67 -71zM465 513
c0 100 -82 181 -182 181s-182 -81 -182 -181s82 -182 182 -182s182 82 182 182zM504 513c0 -122 -99 -221 -221 -221s-221 99 -221 221s99 221 221 221s221 -99 221 -221z" />
    <glyph glyph-name="minus" unicode="&#x2212;" 
d="M430 215h-294c-46 0 -46 70 0 70h294c46 0 46 -70 0 -70z" />
    <glyph glyph-name="eth" unicode="&#xf0;" 
 />
    <glyph glyph-name="multiply" unicode="&#xd7;" 
d="M401 318l-69 -68l69 -68c33 -33 -17 -83 -50 -50l-68 69l-68 -69c-33 -33 -83 17 -50 50l69 68l-69 68c-33 33 17 83 50 50l68 -69l68 69c33 33 83 -17 50 -50z" />
    <glyph glyph-name="threesuperior" unicode="&#xb3;" 
 />
    <glyph glyph-name="copyright" unicode="&#xa9;" 
d="M377 587c0 -11 -9 -20 -20 -20c-16 0 -32 32 -77 32c-48 0 -88 -40 -88 -89s40 -89 88 -89c45 0 61 32 77 32c11 0 20 -9 20 -20c0 -6 -2 -10 -6 -14c-20 -24 -60 -38 -91 -38c-70 0 -128 58 -128 129s58 129 128 129c31 0 71 -14 91 -38c4 -4 6 -8 6 -14zM465 513
c0 100 -82 181 -182 181s-182 -81 -182 -181s82 -182 182 -182s182 82 182 182zM504 513c0 -122 -99 -221 -221 -221s-221 99 -221 221s99 221 221 221s221 -99 221 -221z" />
    <glyph glyph-name="Aacute" unicode="&#xc1;" 
d="M162 266h242l-121 328zM565 38c0 -21 -16 -38 -37 -38c-15 0 -29 10 -34 24l-62 167h-298l-62 -167c-5 -14 -19 -24 -34 -24c-21 0 -37 17 -37 38c0 12 48 143 95 270l113 299l28 78c2 4 4 9 5 14c2 6 4 12 7 17c6 11 16 23 34 23s28 -12 34 -23c3 -5 5 -11 7 -17
c1 -5 3 -10 5 -14l28 -78l113 -299c47 -127 95 -258 95 -270zM398 919c4 -12 0 -25 -8 -35l-74 -85c-4 -4 -9 -7 -15 -10c-18 -6 -38 6 -45 23c-4 13 0 25 8 35l74 85c4 4 9 8 15 10c18 7 38 -5 45 -23z" />
    <glyph glyph-name="Acircumflex" unicode="&#xc2;" 
d="M162 266h242l-121 328zM565 38c0 -21 -16 -38 -37 -38c-15 0 -29 10 -34 24l-62 167h-298l-62 -167c-5 -14 -19 -24 -34 -24c-21 0 -37 17 -37 38c0 12 48 143 95 270l113 299l28 78c2 4 4 9 5 14c2 6 4 12 7 17c6 11 16 23 34 23s28 -12 34 -23c3 -5 5 -11 7 -17
c1 -5 3 -10 5 -14l28 -78l113 -299c47 -127 95 -258 95 -270zM422 837c0 -17 -15 -31 -31 -31c-8 0 -16 4 -21 9l-87 87l-87 -87c-5 -5 -13 -9 -21 -9c-16 0 -31 14 -31 31c0 9 7 18 13 25c7 9 16 16 24 25c20 21 74 87 102 87s82 -66 102 -87c8 -9 17 -16 24 -25
c6 -7 13 -16 13 -25z" />
    <glyph glyph-name="Adieresis" unicode="&#xc4;" 
d="M162 266h242l-121 328zM565 38c0 -21 -16 -38 -37 -38c-15 0 -29 10 -34 24l-62 167h-298l-62 -167c-5 -14 -19 -24 -34 -24c-21 0 -37 17 -37 38c0 12 48 143 95 270l113 299l28 78c2 4 4 9 5 14c2 6 4 12 7 17c6 11 16 23 34 23s28 -12 34 -23c3 -5 5 -11 7 -17
c1 -5 3 -10 5 -14l28 -78l113 -299c47 -127 95 -258 95 -270zM245 850c0 -35 -28 -63 -61 -63s-60 28 -60 63c0 34 27 62 60 62s61 -28 61 -62zM442 850c0 -35 -27 -63 -60 -63s-61 28 -61 63c0 34 28 62 61 62s60 -28 60 -62z" />
    <glyph glyph-name="Agrave" unicode="&#xc0;" 
d="M162 266h242l-121 328zM565 38c0 -21 -16 -38 -37 -38c-15 0 -29 10 -34 24l-62 167h-298l-62 -167c-5 -14 -19 -24 -34 -24c-21 0 -37 17 -37 38c0 12 48 143 95 270l113 299l28 78c2 4 4 9 5 14c2 6 4 12 7 17c6 11 16 23 34 23s28 -12 34 -23c3 -5 5 -11 7 -17
c1 -5 3 -10 5 -14l28 -78l113 -299c47 -127 95 -258 95 -270zM305 821c-7 -18 -27 -30 -45 -23c-6 2 -10 5 -15 10l-70 76c-9 9 -12 22 -8 34c7 18 26 30 45 23c5 -2 10 -6 14 -10l71 -76c9 -9 12 -22 8 -34z" />
    <glyph glyph-name="Aring" unicode="&#xc5;" 
d="M162 266h242l-121 328zM330 796c0 26 -21 47 -47 47s-47 -21 -47 -47c0 -25 21 -46 47 -46s47 21 47 46zM565 38c0 -21 -16 -38 -37 -38c-15 0 -29 10 -34 24l-62 167h-298l-62 -167c-5 -14 -19 -24 -34 -24c-21 0 -37 17 -37 38c0 12 48 143 95 270l113 299l28 78
c2 4 4 9 5 14c2 4 3 8 5 12c-33 14 -57 47 -57 85c0 51 42 93 93 93s93 -42 93 -93c0 -38 -24 -71 -57 -85c2 -4 3 -8 5 -12c1 -5 3 -10 5 -14l28 -78l113 -299c47 -127 95 -258 95 -270z" />
    <glyph glyph-name="Atilde" unicode="&#xc3;" 
d="M162 266h242l-121 328zM565 38c0 -21 -16 -38 -37 -38c-15 0 -29 10 -34 24l-62 167h-298l-62 -167c-5 -14 -19 -24 -34 -24c-21 0 -37 17 -37 38c0 12 48 143 95 270l113 299l28 78c2 4 4 9 5 14c2 6 4 12 7 17c6 11 16 23 34 23s28 -12 34 -23c3 -5 5 -11 7 -17
c1 -5 3 -10 5 -14l28 -78l113 -299c47 -127 95 -258 95 -270zM446 884c0 -35 -35 -77 -74 -77c-48 0 -99 45 -142 45c-48 0 -36 -56 -72 -56c-20 0 -38 18 -38 38c0 5 1 11 4 16c16 36 44 72 88 72c51 0 102 -46 139 -46c31 0 29 41 65 41c18 0 30 -15 30 -33z" />
    <glyph glyph-name="Ccedilla" unicode="&#xc7;" 
d="M492 218c0 -103 -68 -189 -160 -212c-6 -11 -13 -22 -16 -28c39 -11 63 -35 63 -71c0 -76 -86 -93 -146 -93c-28 0 -72 -3 -72 36c0 20 14 35 34 35c15 0 29 -2 43 -2c15 0 71 2 71 26c0 16 -24 22 -36 23c-17 1 -35 5 -35 26c0 9 6 26 14 44c-101 16 -178 107 -178 216
v303c0 120 94 218 209 218s209 -98 209 -218c0 -21 -16 -38 -36 -38s-36 17 -36 38c0 78 -62 142 -137 142s-137 -64 -137 -142v-303c0 -79 62 -143 137 -143s137 64 137 143c0 20 16 37 36 37s36 -17 36 -37z" />
    <glyph glyph-name="Eacute" unicode="&#xc9;" 
d="M501 38c0 -21 -16 -38 -35 -38h-366c-19 0 -35 17 -35 38v663c0 20 16 38 35 38h366c19 0 35 -18 35 -38c0 -21 -16 -38 -35 -38h-330v-256h256c20 0 36 -17 36 -38c0 -20 -16 -37 -36 -37h-256v-257h330c19 0 35 -17 35 -37z" />
    <glyph glyph-name="Ecircumflex" unicode="&#xca;" 
d="M501 38c0 -21 -16 -38 -35 -38h-366c-19 0 -35 17 -35 38v663c0 20 16 38 35 38h366c19 0 35 -18 35 -38c0 -21 -16 -38 -35 -38h-330v-256h256c20 0 36 -17 36 -38c0 -20 -16 -37 -36 -37h-256v-257h330c19 0 35 -17 35 -37zM427 837c0 -17 -15 -31 -31 -31
c-8 0 -16 4 -21 9l-87 87l-87 -87c-5 -5 -13 -9 -21 -9c-16 0 -31 14 -31 31c0 9 7 18 13 25c7 9 16 16 24 25c20 21 74 87 102 87s82 -66 102 -87c8 -9 17 -16 24 -25c6 -7 13 -16 13 -25z" />
    <glyph glyph-name="Edieresis" unicode="&#xcb;" 
d="M501 38c0 -21 -16 -38 -35 -38h-366c-19 0 -35 17 -35 38v663c0 20 16 38 35 38h366c19 0 35 -18 35 -38c0 -21 -16 -38 -35 -38h-330v-256h256c20 0 36 -17 36 -38c0 -20 -16 -37 -36 -37h-256v-257h330c19 0 35 -17 35 -37zM250 850c0 -35 -28 -63 -61 -63
s-60 28 -60 63c0 34 27 62 60 62s61 -28 61 -62zM447 850c0 -35 -27 -63 -60 -63s-61 28 -61 63c0 34 28 62 61 62s60 -28 60 -62z" />
    <glyph glyph-name="Egrave" unicode="&#xc8;" 
d="M501 38c0 -21 -16 -38 -35 -38h-366c-19 0 -35 17 -35 38v663c0 20 16 38 35 38h366c19 0 35 -18 35 -38c0 -21 -16 -38 -35 -38h-330v-256h256c20 0 36 -17 36 -38c0 -20 -16 -37 -36 -37h-256v-257h330c19 0 35 -17 35 -37zM310 821c-7 -18 -27 -30 -45 -23
c-6 2 -10 5 -15 10l-70 76c-9 9 -12 22 -8 34c7 18 26 30 45 23c5 -2 10 -6 14 -10l71 -76c9 -9 12 -22 8 -34z" />
    <glyph glyph-name="Iacute" unicode="&#xcd;" 
d="M496 38c0 -21 -16 -38 -36 -38h-354c-20 0 -36 17 -36 38c0 20 16 37 36 37h141v589h-141c-20 0 -36 17 -36 38c0 20 16 37 36 37h354c20 0 36 -17 36 -37c0 -21 -16 -38 -36 -38h-141v-589h141c20 0 36 -17 36 -37zM398 919c4 -12 0 -25 -8 -35l-74 -85
c-4 -4 -9 -7 -15 -10c-18 -6 -38 6 -45 23c-4 13 0 25 8 35l74 85c4 4 9 8 15 10c18 7 38 -5 45 -23z" />
    <glyph glyph-name="Icircumflex" unicode="&#xce;" 
d="M496 38c0 -21 -16 -38 -36 -38h-354c-20 0 -36 17 -36 38c0 20 16 37 36 37h141v589h-141c-20 0 -36 17 -36 38c0 20 16 37 36 37h354c20 0 36 -17 36 -37c0 -21 -16 -38 -36 -38h-141v-589h141c20 0 36 -17 36 -37zM422 837c0 -17 -15 -31 -31 -31c-8 0 -16 4 -21 9
l-87 87l-87 -87c-5 -5 -13 -9 -21 -9c-16 0 -31 14 -31 31c0 9 7 18 13 25c7 9 16 16 24 25c20 21 74 87 102 87s82 -66 102 -87c8 -9 17 -16 24 -25c6 -7 13 -16 13 -25z" />
    <glyph glyph-name="Idieresis" unicode="&#xcf;" 
d="M496 38c0 -21 -16 -38 -36 -38h-354c-20 0 -36 17 -36 38c0 20 16 37 36 37h141v589h-141c-20 0 -36 17 -36 38c0 20 16 37 36 37h354c20 0 36 -17 36 -37c0 -21 -16 -38 -36 -38h-141v-589h141c20 0 36 -17 36 -37zM245 850c0 -35 -28 -63 -61 -63s-60 28 -60 63
c0 34 27 62 60 62s61 -28 61 -62zM442 850c0 -35 -27 -63 -60 -63s-61 28 -61 63c0 34 28 62 61 62s60 -28 60 -62z" />
    <glyph glyph-name="Igrave" unicode="&#xcc;" 
d="M496 38c0 -21 -16 -38 -36 -38h-354c-20 0 -36 17 -36 38c0 20 16 37 36 37h141v589h-141c-20 0 -36 17 -36 38c0 20 16 37 36 37h354c20 0 36 -17 36 -37c0 -21 -16 -38 -36 -38h-141v-589h141c20 0 36 -17 36 -37zM325 821c-7 -18 -27 -30 -45 -23c-6 2 -10 5 -15 10
l-70 76c-9 9 -12 22 -8 34c7 18 26 30 45 23c5 -2 10 -6 14 -10l71 -76c9 -9 12 -22 8 -34z" />
    <glyph glyph-name="Ntilde" unicode="&#xd1;" 
d="M501 702v-664c0 -21 -16 -38 -36 -38c-13 0 -25 7 -31 19l-297 540v-521c0 -21 -16 -38 -36 -38s-36 17 -36 38v664c0 20 16 37 36 37c13 0 25 -7 31 -19l297 -540v522c0 20 16 37 36 37s36 -17 36 -37zM446 874c0 -35 -35 -77 -74 -77c-48 0 -99 45 -142 45
c-48 0 -36 -56 -72 -56c-20 0 -38 18 -38 38c0 5 1 11 4 16c16 36 44 72 88 72c51 0 102 -46 139 -46c31 0 29 41 65 41c18 0 30 -15 30 -33z" />
    <glyph glyph-name="Oacute" unicode="&#xd3;" 
d="M420 215v306c0 78 -62 142 -137 142s-137 -64 -137 -142v-306c0 -78 62 -143 137 -143s137 65 137 143zM493 521v-306c0 -120 -95 -218 -210 -218s-210 98 -210 218v306c0 120 95 218 210 218s210 -98 210 -218zM398 919c4 -12 0 -25 -8 -35l-74 -85c-4 -4 -9 -7 -15 -10
c-18 -6 -38 6 -45 23c-4 13 0 25 8 35l74 85c4 4 9 8 15 10c18 7 38 -5 45 -23z" />
    <glyph glyph-name="Ocircumflex" unicode="&#xd4;" 
d="M420 215v306c0 78 -62 142 -137 142s-137 -64 -137 -142v-306c0 -78 62 -143 137 -143s137 65 137 143zM493 521v-306c0 -120 -95 -218 -210 -218s-210 98 -210 218v306c0 120 95 218 210 218s210 -98 210 -218zM422 837c0 -17 -15 -31 -31 -31c-8 0 -16 4 -21 9l-87 87
l-87 -87c-5 -5 -13 -9 -21 -9c-16 0 -31 14 -31 31c0 9 7 18 13 25c7 9 16 16 24 25c20 21 74 87 102 87s82 -66 102 -87c8 -9 17 -16 24 -25c6 -7 13 -16 13 -25z" />
    <glyph glyph-name="Odieresis" unicode="&#xd6;" 
d="M420 215v306c0 78 -62 142 -137 142s-137 -64 -137 -142v-306c0 -78 62 -143 137 -143s137 65 137 143zM493 521v-306c0 -120 -95 -218 -210 -218s-210 98 -210 218v306c0 120 95 218 210 218s210 -98 210 -218zM245 850c0 -35 -28 -63 -61 -63s-60 28 -60 63
c0 34 27 62 60 62s61 -28 61 -62zM442 850c0 -35 -27 -63 -60 -63s-61 28 -61 63c0 34 28 62 61 62s60 -28 60 -62z" />
    <glyph glyph-name="Ograve" unicode="&#xd2;" 
d="M420 215v306c0 78 -62 142 -137 142s-137 -64 -137 -142v-306c0 -78 62 -143 137 -143s137 65 137 143zM493 521v-306c0 -120 -95 -218 -210 -218s-210 98 -210 218v306c0 120 95 218 210 218s210 -98 210 -218zM325 821c-7 -18 -27 -30 -45 -23c-6 2 -10 5 -15 10
l-70 76c-9 9 -12 22 -8 34c7 18 26 30 45 23c5 -2 10 -6 14 -10l71 -76c9 -9 12 -22 8 -34z" />
    <glyph glyph-name="Otilde" unicode="&#xd5;" 
d="M420 215v306c0 78 -62 142 -137 142s-137 -64 -137 -142v-306c0 -78 62 -143 137 -143s137 65 137 143zM493 521v-306c0 -120 -95 -218 -210 -218s-210 98 -210 218v306c0 120 95 218 210 218s210 -98 210 -218zM446 884c0 -35 -35 -77 -74 -77c-48 0 -99 45 -142 45
c-48 0 -36 -56 -72 -56c-20 0 -38 18 -38 38c0 5 1 11 4 16c16 36 44 72 88 72c51 0 102 -46 139 -46c31 0 29 41 65 41c18 0 30 -15 30 -33z" />
    <glyph glyph-name="Scaron" unicode="&#x160;" 
 />
    <glyph glyph-name="Uacute" unicode="&#xda;" 
d="M493 701v-482c0 -121 -94 -219 -210 -219s-210 98 -210 219v482c0 20 16 38 36 38s36 -18 36 -38v-482c0 -79 62 -144 138 -144s138 65 138 144v482c0 20 16 38 36 38s36 -18 36 -38zM398 919c4 -12 0 -25 -8 -35l-74 -85c-4 -4 -9 -7 -15 -10c-18 -6 -38 6 -45 23
c-4 13 0 25 8 35l74 85c4 4 9 8 15 10c18 7 38 -5 45 -23z" />
    <glyph glyph-name="Ucircumflex" unicode="&#xdb;" 
d="M493 701v-482c0 -121 -94 -219 -210 -219s-210 98 -210 219v482c0 20 16 38 36 38s36 -18 36 -38v-482c0 -79 62 -144 138 -144s138 65 138 144v482c0 20 16 38 36 38s36 -18 36 -38zM422 837c0 -17 -15 -31 -31 -31c-8 0 -16 4 -21 9l-87 87l-87 -87
c-5 -5 -13 -9 -21 -9c-16 0 -31 14 -31 31c0 9 7 18 13 25c7 9 16 16 24 25c20 21 74 87 102 87s82 -66 102 -87c8 -9 17 -16 24 -25c6 -7 13 -16 13 -25z" />
    <glyph glyph-name="Udieresis" unicode="&#xdc;" 
d="M493 701v-482c0 -121 -94 -219 -210 -219s-210 98 -210 219v482c0 20 16 38 36 38s36 -18 36 -38v-482c0 -79 62 -144 138 -144s138 65 138 144v482c0 20 16 38 36 38s36 -18 36 -38zM245 850c0 -35 -28 -63 -61 -63s-60 28 -60 63c0 34 27 62 60 62s61 -28 61 -62z
M442 850c0 -35 -27 -63 -60 -63s-61 28 -61 63c0 34 28 62 61 62s60 -28 60 -62z" />
    <glyph glyph-name="Ugrave" unicode="&#xd9;" 
d="M493 701v-482c0 -121 -94 -219 -210 -219s-210 98 -210 219v482c0 20 16 38 36 38s36 -18 36 -38v-482c0 -79 62 -144 138 -144s138 65 138 144v482c0 20 16 38 36 38s36 -18 36 -38zM305 821c-7 -18 -27 -30 -45 -23c-6 2 -10 5 -15 10l-70 76c-9 9 -12 22 -8 34
c7 18 26 30 45 23c5 -2 10 -6 14 -10l71 -76c9 -9 12 -22 8 -34z" />
    <glyph glyph-name="Yacute" unicode="&#xdd;" 
 />
    <glyph glyph-name="Ydieresis" unicode="&#x178;" 
d="M487 701c0 -6 -2 -12 -5 -18l-163 -323v-322c0 -21 -16 -38 -36 -38s-36 17 -36 38v322l-163 323c-3 6 -5 12 -5 18c0 20 17 38 36 38c14 0 26 -8 32 -21l136 -268l136 268c6 13 18 21 32 21c19 0 36 -18 36 -38zM245 850c0 -35 -28 -63 -61 -63s-60 28 -60 63
c0 34 27 62 60 62s61 -28 61 -62zM442 850c0 -35 -27 -63 -60 -63s-61 28 -61 63c0 34 28 62 61 62s60 -28 60 -62z" />
    <glyph glyph-name="Zcaron" unicode="&#x17d;" 
 />
    <glyph glyph-name="aacute" unicode="&#xe1;" 
d="M423 206v23c-14 -6 -28 -9 -44 -9h-162c-41 0 -74 -34 -74 -75s33 -75 74 -75h72c74 0 134 61 134 136zM492 206v-171c0 -19 -15 -35 -35 -35c-19 0 -34 16 -34 35v16c-36 -32 -83 -51 -134 -51h-72c-79 0 -143 65 -143 145s64 145 143 145h162c23 0 42 18 44 41
c-3 47 -48 92 -125 92c-62 0 -114 -31 -130 -70c-8 -18 -28 -26 -46 -19c-17 7 -26 28 -18 46c28 69 107 113 194 113c103 0 184 -64 193 -152c1 -2 1 -5 1 -7v-4v-3v-121zM408 679c4 -12 0 -25 -8 -35l-74 -85c-4 -4 -9 -7 -15 -10c-18 -6 -38 6 -45 23c-4 13 0 25 8 35
l74 85c4 4 9 8 15 10c18 7 38 -5 45 -23z" />
    <glyph glyph-name="acircumflex" unicode="&#xe2;" 
d="M423 206v23c-14 -6 -28 -9 -44 -9h-162c-41 0 -74 -34 -74 -75s33 -75 74 -75h72c74 0 134 61 134 136zM492 206v-171c0 -19 -15 -35 -35 -35c-19 0 -34 16 -34 35v16c-36 -32 -83 -51 -134 -51h-72c-79 0 -143 65 -143 145s64 145 143 145h162c23 0 42 18 44 41
c-3 47 -48 92 -125 92c-62 0 -114 -31 -130 -70c-8 -18 -28 -26 -46 -19c-17 7 -26 28 -18 46c28 69 107 113 194 113c103 0 184 -64 193 -152c1 -2 1 -5 1 -7v-4v-3v-121zM432 607c0 -17 -15 -31 -31 -31c-8 0 -16 4 -21 9l-87 87l-87 -87c-5 -5 -13 -9 -21 -9
c-16 0 -31 14 -31 31c0 9 7 18 13 25c7 9 16 16 24 25c20 21 74 87 102 87s82 -66 102 -87c8 -9 17 -16 24 -25c6 -7 13 -16 13 -25z" />
    <glyph glyph-name="adieresis" unicode="&#xe4;" 
d="M423 206v23c-14 -6 -28 -9 -44 -9h-162c-41 0 -74 -34 -74 -75s33 -75 74 -75h72c74 0 134 61 134 136zM492 206v-171c0 -19 -15 -35 -35 -35c-19 0 -34 16 -34 35v16c-36 -32 -83 -51 -134 -51h-72c-79 0 -143 65 -143 145s64 145 143 145h162c23 0 42 18 44 41
c-3 47 -48 92 -125 92c-62 0 -114 -31 -130 -70c-8 -18 -28 -26 -46 -19c-17 7 -26 28 -18 46c28 69 107 113 194 113c103 0 184 -64 193 -152c1 -2 1 -5 1 -7v-4v-3v-121zM255 635c0 -34 -28 -62 -61 -62s-60 28 -60 62c0 35 27 63 60 63s61 -28 61 -63zM452 635
c0 -34 -27 -62 -60 -62s-61 28 -61 62c0 35 28 63 61 63s60 -28 60 -63z" />
    <glyph glyph-name="agrave" unicode="&#xe0;" 
d="M423 206v23c-14 -6 -28 -9 -44 -9h-162c-41 0 -74 -34 -74 -75s33 -75 74 -75h72c74 0 134 61 134 136zM492 206v-171c0 -19 -15 -35 -35 -35c-19 0 -34 16 -34 35v16c-36 -32 -83 -51 -134 -51h-72c-79 0 -143 65 -143 145s64 145 143 145h162c23 0 42 18 44 41
c-3 47 -48 92 -125 92c-62 0 -114 -31 -130 -70c-8 -18 -28 -26 -46 -19c-17 7 -26 28 -18 46c28 69 107 113 194 113c103 0 184 -64 193 -152c1 -2 1 -5 1 -7v-4v-3v-121zM315 581c-7 -18 -27 -30 -45 -23c-6 2 -10 5 -15 10l-70 76c-9 9 -12 22 -8 34c7 18 26 30 45 23
c5 -2 10 -6 14 -10l71 -76c9 -9 12 -22 8 -34z" />
    <glyph glyph-name="aring" unicode="&#xe5;" 
d="M423 206v23c-14 -6 -28 -9 -44 -9h-162c-41 0 -74 -34 -74 -75s33 -75 74 -75h72c74 0 134 61 134 136zM492 206v-171c0 -19 -15 -35 -35 -35c-19 0 -34 16 -34 35v16c-36 -32 -83 -51 -134 -51h-72c-79 0 -143 65 -143 145s64 145 143 145h162c23 0 42 18 44 41
c-3 47 -48 92 -125 92c-62 0 -114 -31 -130 -70c-8 -18 -28 -26 -46 -19c-17 7 -26 28 -18 46c28 69 107 113 194 113c103 0 184 -64 193 -152c1 -2 1 -5 1 -7v-4v-3v-121zM340 646c0 26 -21 47 -47 47s-47 -21 -47 -47s21 -47 47 -47s47 21 47 47zM386 646
c0 -51 -42 -93 -93 -93s-93 42 -93 93s42 93 93 93s93 -42 93 -93z" />
    <glyph glyph-name="atilde" unicode="&#xe3;" 
d="M423 206v23c-14 -6 -28 -9 -44 -9h-162c-41 0 -74 -34 -74 -75s33 -75 74 -75h72c74 0 134 61 134 136zM492 206v-171c0 -19 -15 -35 -35 -35c-19 0 -34 16 -34 35v16c-36 -32 -83 -51 -134 -51h-72c-79 0 -143 65 -143 145s64 145 143 145h162c23 0 42 18 44 41
c-3 47 -48 92 -125 92c-62 0 -114 -31 -130 -70c-8 -18 -28 -26 -46 -19c-17 7 -26 28 -18 46c28 69 107 113 194 113c103 0 184 -64 193 -152c1 -2 1 -5 1 -7v-4v-3v-121zM456 650c0 -35 -35 -77 -74 -77c-48 0 -99 45 -142 45c-48 0 -36 -56 -72 -56c-20 0 -38 18 -38 37
c0 6 1 12 4 17c16 36 44 72 88 72c51 0 102 -46 139 -46c31 0 29 40 65 40c18 0 30 -14 30 -32z" />
    <glyph glyph-name="ccedilla" unicode="&#xe7;" 
d="M485 130c0 -7 -2 -13 -5 -18c-31 -61 -94 -102 -160 -110c-6 -10 -12 -19 -14 -24c39 -11 63 -35 63 -71c0 -76 -86 -93 -146 -93c-28 0 -72 -3 -72 36c0 20 14 35 34 35c15 0 29 -2 43 -2c15 0 71 2 71 26c0 16 -24 22 -36 23c-17 1 -35 5 -35 26c0 10 6 29 16 48
c-93 23 -163 109 -163 210v61c0 119 96 216 213 216c75 0 151 -43 186 -112c3 -5 5 -11 5 -17c0 -20 -17 -37 -37 -37c-26 0 -34 25 -48 42c-24 31 -66 50 -106 50c-77 0 -140 -64 -140 -142v-61c0 -78 63 -142 140 -142c40 0 82 19 106 50c14 17 22 43 48 43
c20 0 37 -17 37 -37z" />
    <glyph glyph-name="eacute" unicode="&#xe9;" 
d="M143 287h278c-12 87 -65 132 -138 132c-74 0 -135 -58 -140 -132zM497 250c0 -21 -17 -37 -37 -37h-317c1 -77 64 -139 140 -139c51 0 98 28 123 74c10 17 32 24 50 14c17 -10 24 -32 14 -50c-38 -69 -109 -112 -187 -112c-118 0 -214 97 -214 216v61
c0 120 96 216 214 216c127 0 214 -97 214 -243zM388 679c4 -12 0 -25 -8 -35l-74 -85c-4 -4 -9 -7 -15 -10c-18 -6 -38 6 -45 23c-4 13 0 25 8 35l74 85c4 4 9 8 15 10c18 7 38 -5 45 -23z" />
    <glyph glyph-name="ecircumflex" unicode="&#xea;" 
d="M143 287h278c-12 87 -65 132 -138 132c-74 0 -135 -58 -140 -132zM497 250c0 -21 -17 -37 -37 -37h-317c1 -77 64 -139 140 -139c51 0 98 28 123 74c10 17 32 24 50 14c17 -10 24 -32 14 -50c-38 -69 -109 -112 -187 -112c-118 0 -214 97 -214 216v61
c0 120 96 216 214 216c127 0 214 -97 214 -243zM422 607c0 -17 -15 -31 -31 -31c-8 0 -16 4 -21 9l-87 87l-87 -87c-5 -5 -13 -9 -21 -9c-16 0 -31 14 -31 31c0 9 7 18 13 25c7 9 16 16 24 25c20 21 74 87 102 87s82 -66 102 -87c8 -9 17 -16 24 -25c6 -7 13 -16 13 -25z
" />
    <glyph glyph-name="edieresis" unicode="&#xeb;" 
d="M143 287h278c-12 87 -65 132 -138 132c-74 0 -135 -58 -140 -132zM497 250c0 -21 -17 -37 -37 -37h-317c1 -77 64 -139 140 -139c51 0 98 28 123 74c10 17 32 24 50 14c17 -10 24 -32 14 -50c-38 -69 -109 -112 -187 -112c-118 0 -214 97 -214 216v61
c0 120 96 216 214 216c127 0 214 -97 214 -243zM245 635c0 -34 -28 -62 -61 -62s-60 28 -60 62c0 35 27 63 60 63s61 -28 61 -63zM442 635c0 -34 -27 -62 -60 -62s-61 28 -61 62c0 35 28 63 61 63s60 -28 60 -63z" />
    <glyph glyph-name="egrave" unicode="&#xe8;" 
d="M143 287h278c-12 87 -65 132 -138 132c-74 0 -135 -58 -140 -132zM497 250c0 -21 -17 -37 -37 -37h-317c1 -77 64 -139 140 -139c51 0 98 28 123 74c10 17 32 24 50 14c17 -10 24 -32 14 -50c-38 -69 -109 -112 -187 -112c-118 0 -214 97 -214 216v61
c0 120 96 216 214 216c127 0 214 -97 214 -243zM295 581c-7 -18 -27 -30 -45 -23c-6 2 -10 5 -15 10l-70 76c-9 9 -12 22 -8 34c7 18 26 30 45 23c5 -2 10 -6 14 -10l71 -76c9 -9 12 -22 8 -34z" />
    <glyph glyph-name="iacute" unicode="&#xed;" 
d="M497 38c0 -21 -17 -38 -37 -38h-354c-20 0 -37 17 -37 38c0 20 17 38 37 38h140v342h-140c-20 0 -37 17 -37 38c0 20 17 38 37 38h177c20 0 37 -18 37 -38v-380h140c20 0 37 -18 37 -38zM378 729c4 -12 0 -25 -8 -35l-74 -85c-4 -4 -9 -7 -15 -10c-18 -6 -38 6 -45 23
c-4 13 0 25 8 35l74 85c4 4 9 8 15 10c18 7 38 -5 45 -23z" />
    <glyph glyph-name="icircumflex" unicode="&#xee;" 
d="M497 38c0 -21 -17 -38 -37 -38h-354c-20 0 -37 17 -37 38c0 20 17 38 37 38h140v342h-140c-20 0 -37 17 -37 38c0 20 17 38 37 38h177c20 0 37 -18 37 -38v-380h140c20 0 37 -18 37 -38zM402 607c0 -17 -15 -31 -31 -31c-8 0 -16 4 -21 9l-87 87l-87 -87
c-5 -5 -13 -9 -21 -9c-16 0 -31 14 -31 31c0 9 7 18 13 25c7 9 16 16 24 25c20 21 74 87 102 87s82 -66 102 -87c8 -9 17 -16 24 -25c6 -7 13 -16 13 -25z" />
    <glyph glyph-name="idieresis" unicode="&#xef;" 
d="M497 38c0 -21 -17 -38 -37 -38h-354c-20 0 -37 17 -37 38c0 20 17 38 37 38h140v342h-140c-20 0 -37 17 -37 38c0 20 17 38 37 38h177c20 0 37 -18 37 -38v-380h140c20 0 37 -18 37 -38zM225 635c0 -34 -28 -62 -61 -62s-60 28 -60 62c0 35 27 63 60 63s61 -28 61 -63z
M422 635c0 -34 -27 -62 -60 -62s-61 28 -61 62c0 35 28 63 61 63s60 -28 60 -63z" />
    <glyph glyph-name="igrave" unicode="&#xec;" 
d="M497 38c0 -21 -17 -38 -37 -38h-354c-20 0 -37 17 -37 38c0 20 17 38 37 38h140v342h-140c-20 0 -37 17 -37 38c0 20 17 38 37 38h177c20 0 37 -18 37 -38v-380h140c20 0 37 -18 37 -38zM285 631c-7 -18 -27 -30 -45 -23c-6 2 -10 5 -15 10l-70 76c-9 9 -12 22 -8 34
c7 18 26 30 45 23c5 -2 10 -6 14 -10l71 -76c9 -9 12 -22 8 -34z" />
    <glyph glyph-name="ntilde" unicode="&#xf1;" 
d="M497 277v-240c0 -20 -17 -37 -37 -37s-37 17 -37 37v240c0 78 -63 142 -140 142s-140 -64 -140 -142v-240c0 -20 -17 -37 -37 -37s-37 17 -37 37v419c0 21 17 37 37 37s37 -16 37 -37v-16c38 34 88 53 140 53c118 0 214 -97 214 -216zM436 650c0 -35 -35 -77 -74 -77
c-48 0 -99 45 -142 45c-48 0 -36 -56 -72 -56c-20 0 -38 18 -38 37c0 6 1 12 4 17c16 36 44 72 88 72c51 0 102 -46 139 -46c31 0 29 40 65 40c18 0 30 -14 30 -32z" />
    <glyph glyph-name="oacute" unicode="&#xf3;" 
d="M423 216v61c0 78 -62 142 -140 142s-140 -64 -140 -142v-61c0 -77 62 -142 140 -142s140 65 140 142zM497 277v-61c0 -118 -95 -216 -214 -216s-214 98 -214 216v61c0 118 95 216 214 216s214 -98 214 -216zM398 679c4 -12 0 -25 -8 -35l-74 -85c-4 -4 -9 -7 -15 -10
c-18 -6 -38 6 -45 23c-4 13 0 25 8 35l74 85c4 4 9 8 15 10c18 7 38 -5 45 -23z" />
    <glyph glyph-name="ocircumflex" unicode="&#xf4;" 
d="M423 216v61c0 78 -62 142 -140 142s-140 -64 -140 -142v-61c0 -77 62 -142 140 -142s140 65 140 142zM497 277v-61c0 -118 -95 -216 -214 -216s-214 98 -214 216v61c0 118 95 216 214 216s214 -98 214 -216zM422 607c0 -17 -15 -31 -31 -31c-8 0 -16 4 -21 9l-87 87
l-87 -87c-5 -5 -13 -9 -21 -9c-16 0 -31 14 -31 31c0 9 7 18 13 25c7 9 16 16 24 25c20 21 74 87 102 87s82 -66 102 -87c8 -9 17 -16 24 -25c6 -7 13 -16 13 -25z" />
    <glyph glyph-name="odieresis" unicode="&#xf6;" 
d="M423 216v61c0 78 -62 142 -140 142s-140 -64 -140 -142v-61c0 -77 62 -142 140 -142s140 65 140 142zM497 277v-61c0 -118 -95 -216 -214 -216s-214 98 -214 216v61c0 118 95 216 214 216s214 -98 214 -216zM245 635c0 -34 -28 -62 -61 -62s-60 28 -60 62
c0 35 27 63 60 63s61 -28 61 -63zM442 635c0 -34 -27 -62 -60 -62s-61 28 -61 62c0 35 28 63 61 63s60 -28 60 -63z" />
    <glyph glyph-name="ograve" unicode="&#xf2;" 
d="M423 216v61c0 78 -62 142 -140 142s-140 -64 -140 -142v-61c0 -77 62 -142 140 -142s140 65 140 142zM497 277v-61c0 -118 -95 -216 -214 -216s-214 98 -214 216v61c0 118 95 216 214 216s214 -98 214 -216zM305 581c-7 -18 -27 -30 -45 -23c-6 2 -10 5 -15 10l-70 76
c-9 9 -12 22 -8 34c7 18 26 30 45 23c5 -2 10 -6 14 -10l71 -76c9 -9 12 -22 8 -34z" />
    <glyph glyph-name="otilde" unicode="&#xf5;" 
d="M423 216v61c0 78 -62 142 -140 142s-140 -64 -140 -142v-61c0 -77 62 -142 140 -142s140 65 140 142zM497 277v-61c0 -118 -95 -216 -214 -216s-214 98 -214 216v61c0 118 95 216 214 216s214 -98 214 -216zM446 650c0 -35 -35 -77 -74 -77c-48 0 -99 45 -142 45
c-48 0 -36 -56 -72 -56c-20 0 -38 18 -38 37c0 6 1 12 4 17c16 36 44 72 88 72c51 0 102 -46 139 -46c31 0 29 40 65 40c18 0 30 -14 30 -32z" />
    <glyph glyph-name="scaron" unicode="&#x161;" 
 />
    <glyph glyph-name="uacute" unicode="&#xfa;" 
d="M497 456v-419c0 -20 -17 -37 -37 -37s-37 17 -37 37v16c-38 -34 -88 -53 -140 -53c-118 0 -214 97 -214 216v240c0 21 17 37 37 37s37 -16 37 -37v-240c0 -78 63 -142 140 -142s140 64 140 142v240c0 21 17 37 37 37s37 -16 37 -37zM398 679c4 -12 0 -25 -8 -35l-74 -85
c-4 -4 -9 -7 -15 -10c-18 -6 -38 6 -45 23c-4 13 0 25 8 35l74 85c4 4 9 8 15 10c18 7 38 -5 45 -23z" />
    <glyph glyph-name="ucircumflex" unicode="&#xfb;" 
d="M497 456v-419c0 -20 -17 -37 -37 -37s-37 17 -37 37v16c-38 -34 -88 -53 -140 -53c-118 0 -214 97 -214 216v240c0 21 17 37 37 37s37 -16 37 -37v-240c0 -78 63 -142 140 -142s140 64 140 142v240c0 21 17 37 37 37s37 -16 37 -37zM422 607c0 -17 -15 -31 -31 -31
c-8 0 -16 4 -21 9l-87 87l-87 -87c-5 -5 -13 -9 -21 -9c-16 0 -31 14 -31 31c0 9 7 18 13 25c7 9 16 16 24 25c20 21 74 87 102 87s82 -66 102 -87c8 -9 17 -16 24 -25c6 -7 13 -16 13 -25z" />
    <glyph glyph-name="udieresis" unicode="&#xfc;" 
d="M497 456v-419c0 -20 -17 -37 -37 -37s-37 17 -37 37v16c-38 -34 -88 -53 -140 -53c-118 0 -214 97 -214 216v240c0 21 17 37 37 37s37 -16 37 -37v-240c0 -78 63 -142 140 -142s140 64 140 142v240c0 21 17 37 37 37s37 -16 37 -37zM245 635c0 -34 -28 -62 -61 -62
s-60 28 -60 62c0 35 27 63 60 63s61 -28 61 -63zM442 635c0 -34 -27 -62 -60 -62s-61 28 -61 62c0 35 28 63 61 63s60 -28 60 -63z" />
    <glyph glyph-name="ugrave" unicode="&#xf9;" 
d="M497 456v-419c0 -20 -17 -37 -37 -37s-37 17 -37 37v16c-38 -34 -88 -53 -140 -53c-118 0 -214 97 -214 216v240c0 21 17 37 37 37s37 -16 37 -37v-240c0 -78 63 -142 140 -142s140 64 140 142v240c0 21 17 37 37 37s37 -16 37 -37zM305 581c-7 -18 -27 -30 -45 -23
c-6 2 -10 5 -15 10l-70 76c-9 9 -12 22 -8 34c7 18 26 30 45 23c5 -2 10 -6 14 -10l71 -76c9 -9 12 -22 8 -34z" />
    <glyph glyph-name="yacute" unicode="&#xfd;" 
 />
    <glyph glyph-name="ydieresis" unicode="&#xff;" 
d="M494 441l-267 -648c-6 -15 -20 -23 -34 -23c-25 0 -44 27 -34 52l84 204l-171 415c-8 19 1 40 20 49c18 8 40 0 48 -20l143 -348l143 348c8 20 30 28 48 20c19 -9 28 -30 20 -49zM245 635c0 -34 -28 -62 -61 -62s-60 28 -60 62c0 35 27 63 60 63s61 -28 61 -63zM442 635
c0 -34 -27 -62 -60 -62s-61 28 -61 62c0 35 28 63 61 63s60 -28 60 -63z" />
    <glyph glyph-name="zcaron" unicode="&#x17e;" 
 />
    <glyph glyph-name="HT" unicode="&#x9;" 
 />
    <glyph glyph-name="LF" unicode="&#xa;" 
 />
    <glyph glyph-name="CR" unicode="&#xd;" 
 />
    <glyph glyph-name="DLE" 
 />
    <glyph glyph-name="DC1" 
 />
    <glyph glyph-name="DC2" 
 />
    <glyph glyph-name="DC3" 
 />
    <glyph glyph-name="DC4" 
 />
    <glyph glyph-name="RS" 
 />
    <glyph glyph-name="US" 
 />
    <glyph glyph-name="DEL" 
 />
    <glyph glyph-name="Euro" unicode="&#x20ac;" 
d="M561 38c0 -21 -17 -38 -38 -38h-81c-169 0 -293 111 -343 264h-56c-21 0 -38 17 -38 39c0 21 17 38 38 38h39c-1 14 -2 28 -2 43c0 14 1 28 2 42h-39c-21 0 -38 17 -38 38c0 22 17 39 38 39h56c50 153 174 264 343 264h81c21 0 38 -17 38 -38s-17 -39 -38 -39h-81
c-127 0 -215 -77 -262 -187h281c21 0 38 -17 38 -39c0 -21 -17 -38 -38 -38h-302c-2 -14 -3 -28 -3 -42c0 -15 1 -29 3 -43h302c21 0 38 -17 38 -38c0 -22 -17 -39 -38 -39h-281c47 -110 135 -187 262 -187h81c21 0 38 -18 38 -39z" />
    <glyph glyph-name="uni00A0" unicode="&#xa0;" 
 />
    <glyph glyph-name="notequal" unicode="&#x2260;" 
 />
    <glyph glyph-name="infinity" unicode="&#x221e;" 
d="M244 246c-19 24 -56 62 -96 62c-38 0 -68 -28 -68 -62s30 -62 68 -62c40 0 77 38 96 62zM486 246c0 34 -30 62 -68 62c-41 0 -77 -38 -96 -62c19 -24 56 -62 96 -62c38 0 68 28 68 62zM551 246c0 -68 -60 -123 -133 -123c-61 0 -108 41 -135 71c-27 -30 -74 -71 -135 -71
c-73 0 -133 55 -133 123s60 123 133 123c61 0 108 -41 135 -71c27 30 74 71 135 71c73 0 133 -55 133 -123z" />
    <glyph glyph-name="lessequal" unicode="&#x2264;" 
d="M488 38c0 -21 -17 -38 -38 -38h-334c-21 0 -38 17 -38 38s17 38 38 38h334c21 0 38 -17 38 -38zM488 157c0 -21 -17 -38 -38 -38c-7 0 -14 2 -20 6l-322 207c-11 7 -18 19 -18 32s7 25 18 32l322 206c6 4 13 6 20 6c21 0 38 -17 38 -38c0 -13 -7 -25 -18 -32l-272 -174
l272 -174c11 -7 18 -20 18 -33z" />
    <glyph glyph-name="greaterequal" unicode="&#x2265;" 
d="M476 38c0 -21 -17 -38 -37 -38h-317c-20 0 -37 17 -37 38s17 38 37 38h317c20 0 37 -17 37 -38zM481 364c0 -13 -6 -25 -17 -32l-322 -207c-6 -4 -13 -6 -20 -6c-20 0 -37 17 -37 38c0 13 6 26 17 33l272 174l-272 174c-11 7 -17 19 -17 32c0 21 17 38 37 38
c7 0 14 -2 20 -6l322 -206c11 -7 17 -19 17 -32z" />
    <glyph glyph-name="partialdiff" unicode="&#x2202;" 
 />
    <glyph glyph-name="summation" unicode="&#x2211;" 
d="M525 38c0 -21 -17 -38 -38 -38h-408c-16 0 -30 10 -35 24c-6 15 -2 32 9 43l338 316l-338 317c-11 10 -15 27 -9 42c5 14 19 24 35 24h408c21 0 38 -17 38 -38s-17 -39 -38 -39h-311l297 -278c7 -7 12 -17 12 -28s-5 -21 -12 -28l-297 -278h311c21 0 38 -17 38 -39z" />
    <glyph glyph-name="product" unicode="&#x220f;" 
 />
    <glyph glyph-name="pi" unicode="&#x3c0;" 
d="M537 456c0 -21 -17 -37 -38 -37h-65v-280c0 -35 29 -64 64 -64c21 0 38 -17 38 -38c0 -20 -16 -37 -37 -37c-78 0 -140 62 -140 139v280h-156v-382c0 -20 -16 -37 -37 -37s-38 17 -38 37v382h-61c-21 0 -38 16 -38 37s17 38 38 38h432c21 0 38 -17 38 -38z" />
    <glyph glyph-name="integral" unicode="&#x222b;" 
d="M438 661c-12 -22 -39 -30 -61 -16c-9 5 -17 5 -23 1c-14 -8 -27 -34 -27 -76v-551c0 -63 -15 -113 -48 -145c-24 -23 -55 -34 -91 -34c-9 0 -18 1 -28 2c-24 4 -41 28 -38 54c3 25 25 44 50 41c26 -4 40 1 48 8c14 13 19 44 19 74v551c0 69 24 129 70 158
c36 22 77 21 113 -2c22 -13 28 -42 16 -65z" />
    <glyph glyph-name="Omega" unicode="&#x2126;" 
d="M566 38c0 -21 -17 -38 -38 -38h-159c-18 0 -34 12 -38 30c-4 17 5 35 21 43c107 53 137 148 137 273c0 179 -38 316 -206 316s-206 -137 -206 -316c0 -125 30 -220 137 -273c16 -8 25 -26 21 -43c-4 -18 -20 -30 -38 -30h-159c-21 0 -38 17 -38 38c0 22 17 39 38 39h61
c-75 74 -99 159 -99 269c0 220 71 393 283 393s283 -173 283 -393c0 -110 -24 -195 -99 -269h61c21 0 38 -17 38 -39z" />
    <glyph glyph-name="radical" unicode="&#x221a;" 
d="M541 701c0 -24 -215 -624 -244 -707c-4 -11 -14 -30 -35 -30c-19 0 -29 16 -34 27l-96 211h-69c-22 0 -38 16 -38 38s16 39 38 39h93c12 0 29 -12 34 -22l67 -148l210 604c5 14 18 26 35 26c19 0 39 -15 39 -38z" />
    <glyph glyph-name="approxequal" unicode="&#x2248;" 
d="M446 200c0 -35 -35 -77 -74 -77c-48 0 -99 45 -142 45c-48 0 -36 -56 -72 -56c-20 0 -38 18 -38 37c0 6 1 12 4 17c16 36 44 72 88 72c51 0 102 -46 139 -46c31 0 29 40 65 40c18 0 30 -14 30 -32zM446 330c0 -35 -35 -77 -74 -77c-48 0 -99 45 -142 45
c-48 0 -36 -56 -72 -56c-20 0 -38 18 -38 37c0 6 1 12 4 17c16 36 44 72 88 72c51 0 102 -46 139 -46c31 0 29 40 65 40c18 0 30 -14 30 -32z" />
    <glyph glyph-name="Delta" unicode="&#x2206;" 
d="M160 67h246l-123 290zM314 455l174 -408c11 -25 -4 -47 -31 -47h-348c-27 0 -42 22 -31 47l174 408c14 32 48 32 62 0z" />
    <glyph glyph-name="lozenge" unicode="&#x25ca;" 
d="M283 125l117 118l-117 117l-117 -117zM480 216l-171 -170c-14 -14 -38 -14 -52 0l-171 170c-15 14 -14 39 0 53l171 170c14 14 38 14 52 0l171 -170c14 -14 15 -39 0 -53z" />
    <glyph glyph-name="apple" unicode="&#xf8ff;" 
 />
    <glyph glyph-name="_256" 
d="M497 38c0 -21 -17 -38 -37 -38h-354c-20 0 -37 17 -37 38c0 20 17 38 37 38h140v342h-140c-20 0 -37 17 -37 38c0 20 17 38 37 38h177c20 0 37 -18 37 -38v-380h140c20 0 37 -18 37 -38z" />
  </font>
</defs>
</svg>
