<?xml version="1.0" encoding="utf-8"?>
<!DOCTYPE svg PUBLIC "-//W3C//DTD SVG 1.1//EN" "http://www.w3.org/Graphics/SVG/1.1/DTD/svg11.dtd">
<svg version="1.1" id="Layer_1" xmlns="http://www.w3.org/2000/svg" xmlns:xlink="http://www.w3.org/1999/xlink" x="0px" y="0px"
	 viewBox="0 0 468 600" enable-background="new 0 0 468 600" xml:space="preserve">
<path d="M467.8,341.7c-0.9-8.3-5.3-15.8-12.1-20.6l-148.2-105l-50.2,35.6l133.5,94.5c2.5,1.7,2.8,5.2,0.8,7.4L236.5,523.9
	c-2,2.2-5.4,2.2-7.4,0l-36-39.6c-1.7-1.9-1.7-4.7-0.1-6.6l77.8-89.5c8.3-9.6,13-21.9,13.1-34.6c0.1-12.7-4.4-25.1-12.6-34.8
	c-8.2-9.7-19.7-16.1-32.2-18.1c-12.6-2-25.4,0.6-36.2,7.3l-104,64.3c-2,1.3-4.7,0.9-6.3-0.9l-16.1-17.7c-2-2.2-1.6-5.7,0.8-7.4
	L234,235.2l50.2-35.6l48.3-34.2c0.8-0.6,1.6-1.2,2.3-1.8c15-13.3,25.2-27.8,30.1-43.2c5.1-15.7,4.7-32-1.2-47.5
	c-18-47.5-80.2-73-129.7-73c0,0,0,0,0,0c0,0,0,0,0,0c-49.5,0-111.8,25.5-129.7,73c-5.8,15.4-6.2,31.8-1.2,47.5
	c5,15.4,15.1,29.8,30,43.1c0.8,0.7,1.6,1.3,2.5,1.9l48.2,34.2L12.3,321.1c-6.8,4.8-11.2,12.3-12.1,20.6c-0.9,8.3,1.8,16.5,7.4,22.7
	l61.1,67c9.4,10.3,24.8,12.5,36.7,5.1l100.9-62.4l-76.8,88.3c-9.7,11.1-9.5,27.7,0.4,38.6l81.5,89.5c5.7,6.3,13.6,9.5,21.4,9.5
	c7,0,14-2.5,19.5-7.6c0.6-0.5,1.1-1,1.6-1.6c0.5-0.5,1.1-1,1.6-1.6l204.9-224.9C466,358.2,468.7,350,467.8,341.7z M170.4,119.1
	c-5.1-4.6-15.8-15.2-11.9-25.6c6.4-16.8,40-35.6,75.5-35.6c35.5,0,69.1,18.8,75.5,35.6c1,2.7,4.1,10.9-11.9,25.6l-63.6,45
	L170.4,119.1z"/>
</svg>
